<?xml version="1.0" encoding="UTF-8" standalone="no"?>
<!-- Created with Inkscape (http://www.inkscape.org/) -->

<svg
   version="1.1"
   id="svg1"
   width="377.95282"
   height="101.35644"
   viewBox="0 0 377.95283 101.35643"
   xmlns="http://www.w3.org/2000/svg"
   xmlns:svg="http://www.w3.org/2000/svg">
  <defs
     id="defs1" />
  <g
     id="g1"
     transform="translate(-253.82732,-3924.8244)">
    <path
       style="fill:#000000;stroke-width:0.0322465"
       d="m 543.3446,4026.1725 c -0.90829,-0.124 -1.56939,-0.4136 -2.29534,-1.006 l -0.23155,-0.189 0.59205,-0.5914 0.59209,-0.5914 0.21991,0.1768 c 0.28975,0.233 0.64349,0.4229 0.96159,0.5164 0.22746,0.066 0.3229,0.074 0.80615,0.074 0.48475,0 0.57621,-0.01 0.79004,-0.078 0.29993,-0.095 0.51359,-0.2204 0.7364,-0.4333 0.22231,-0.2123 0.3425,-0.3871 0.45691,-0.6646 0.15609,-0.3785 0.19328,-0.6729 0.19328,-1.5295 v -0.7673 l -0.22188,0.2093 c -0.37618,0.3548 -0.697,0.5414 -1.1874,0.6901 -0.26672,0.081 -0.3231,0.086 -0.94472,0.088 -0.63038,0 -0.676,0 -0.9835,-0.09 -1.20978,-0.342 -1.87437,-1.1473 -2.15751,-2.6146 -0.0794,-0.4114 -0.11708,-1.0034 -0.11708,-1.8382 0,-1.379 0.10637,-2.1245 0.402,-2.8177 0.3654,-0.8567 0.92927,-1.3516 1.847,-1.6208 0.34209,-0.1005 0.35971,-0.1021 1.02525,-0.1021 0.77637,0 0.97596,0.036 1.423,0.2626 0.31015,0.1568 0.45746,0.2626 0.75196,0.5404 l 0.22738,0.2145 v -0.4714 -0.4716 h 0.90368 0.90372 l -0.0105,4.974 c -0.0115,5.4283 0,5.0507 -0.18969,5.6351 -0.11181,0.3424 -0.39573,0.8684 -0.6219,1.1523 -0.39591,0.4967 -1.00826,0.9287 -1.614,1.1385 -0.45876,0.159 -0.73991,0.199 -1.46723,0.2088 -0.38127,0.01 -0.73681,0 -0.79003,0 z m 1.72347,-5.8809 c 0.54493,-0.237 0.83353,-0.6429 1.00943,-1.4196 0.0632,-0.279 0.0694,-0.3986 0.0694,-1.3383 0,-0.9397 -0.006,-1.0592 -0.0694,-1.3382 -0.17562,-0.7755 -0.46137,-1.1781 -1.00943,-1.4221 -0.23944,-0.1065 -0.24163,-0.1069 -0.75607,-0.1069 -0.51446,0 -0.51669,0 -0.75779,0.1071 -0.73314,0.3249 -1.06458,0.9925 -1.12208,2.2604 -0.0862,1.899 0.24431,2.8823 1.08981,3.2424 0.30169,0.1286 0.386,0.141 0.87066,0.1297 0.40853,-0.01 0.45006,-0.016 0.67547,-0.1145 z m 5.51584,4.8719 v -0.835 l 0.49172,-0.014 c 0.42637,-0.011 0.51422,-0.024 0.66037,-0.088 0.19822,-0.088 0.38931,-0.2837 0.51144,-0.524 0.15487,-0.305 0.66481,-1.7762 0.64622,-1.8647 -0.009,-0.046 -0.73381,-2.0367 -1.61003,-4.4268 l -1.59313,-4.3456 0.98685,0.01 0.98678,0.01 1.10272,3.2246 c 0.6065,1.7736 1.10728,3.2361 1.11296,3.2501 0.005,0.015 0.49613,-1.4403 1.09004,-3.2317 l 1.07981,-3.257 h 0.97547 c 0.58271,0 0.97546,0.011 0.97546,0.029 0,0.074 -4.08318,11.1741 -4.20699,11.4376 -0.37438,0.7965 -0.83331,1.1867 -1.6296,1.3858 -0.2704,0.068 -0.38109,0.076 -0.94319,0.076 h -0.6369 z m -293.28149,-2.7905 c -1.33415,-0.1693 -2.33341,-0.6118 -3.22895,-1.43 l -0.24615,-0.225 0.63341,-0.6328 c 0.34835,-0.348 0.64574,-0.6328 0.66083,-0.6328 0.0151,0 0.10461,0.071 0.19897,0.1568 0.53025,0.4847 1.18285,0.8073 1.9733,0.9758 0.46301,0.099 1.48015,0.122 1.94373,0.045 0.84391,-0.1406 1.44011,-0.51 1.70641,-1.0574 0.14439,-0.2967 0.19579,-0.5395 0.19579,-0.925 0,-0.5721 -0.14856,-0.9594 -0.48871,-1.2744 -0.38852,-0.3597 -0.78363,-0.4876 -2.09102,-0.6771 -1.78076,-0.2582 -2.41606,-0.4569 -3.07955,-0.9627 -0.84324,-0.643 -1.229,-1.5552 -1.21191,-2.8658 0.0115,-0.8882 0.35509,-1.7597 0.94649,-2.4014 0.2258,-0.245 0.78032,-0.62 1.18446,-0.8011 0.71295,-0.3196 1.11592,-0.4037 2.0409,-0.4264 0.95514,-0.024 1.57011,0.055 2.27574,0.2869 0.59124,0.195 1.28297,0.5999 1.7457,1.022 l 0.17734,0.1618 -0.61779,0.6198 -0.6178,0.62 -0.17223,-0.145 c -0.4698,-0.3952 -0.97062,-0.6273 -1.63271,-0.7567 -0.41845,-0.082 -1.5141,-0.082 -1.8448,0 -0.98264,0.2432 -1.54924,0.9402 -1.55041,1.9072 -6.3e-4,0.594 0.18655,1.0377 0.55201,1.3077 0.28341,0.2095 0.65395,0.3658 1.0629,0.4488 0.0976,0.019 0.5764,0.094 1.06411,0.1648 1.71883,0.2497 2.3106,0.4297 2.91898,0.8876 0.54876,0.413 1.01055,1.119 1.1999,1.8345 0.0792,0.2992 0.0854,0.3713 0.0861,0.9995 6.2e-4,0.633 -0.005,0.6978 -0.0845,0.9903 -0.37811,1.3888 -1.46112,2.3087 -3.16918,2.6918 -0.50917,0.1143 -0.52695,0.1159 -1.35435,0.1259 -0.56429,0.01 -0.94911,0 -1.17699,-0.034 z m 28.77997,0.028 c -0.0532,-0.01 -0.22735,-0.029 -0.38698,-0.048 -0.91561,-0.111 -1.70717,-0.4566 -2.38877,-1.0428 l -0.22827,-0.1962 0.6096,-0.6047 c 0.33528,-0.3326 0.62048,-0.6047 0.63379,-0.6047 0.0134,0 0.0595,0.038 0.10237,0.084 0.20127,0.2148 0.71487,0.5156 1.11158,0.6514 0.4396,0.1504 0.70169,0.1839 1.43344,0.1826 0.60452,0 0.72429,-0.01 0.93525,-0.069 0.50675,-0.1421 0.81293,-0.3475 0.98294,-0.6595 0.0782,-0.1436 0.0964,-0.22 0.10749,-0.4514 0.0166,-0.3482 -0.0472,-0.5622 -0.22577,-0.756 -0.24876,-0.2698 -0.50836,-0.3423 -1.54193,-0.4311 -1.32927,-0.1139 -1.81378,-0.2075 -2.34196,-0.4525 -0.8942,-0.4146 -1.30787,-1.126 -1.30481,-2.2436 8.3e-4,-0.548 0.13041,-0.9845 0.41559,-1.4071 0.43415,-0.6434 1.1287,-1.0819 2.03805,-1.2869 0.3057,-0.069 0.4138,-0.075 1.1125,-0.075 0.8141,0 1.09079,0.028 1.62845,0.162 0.61569,0.1529 1.19365,0.4359 1.56395,0.7655 l 0.129,0.1149 -0.58559,0.5875 -0.58556,0.5875 -0.12385,-0.098 c -0.44925,-0.3541 -1.20726,-0.5574 -2.0783,-0.5574 -0.77333,0 -1.2007,0.13 -1.49155,0.4534 -0.17375,0.1932 -0.25025,0.4031 -0.25025,0.6868 0,0.2747 0.0476,0.44 0.1742,0.6045 0.22773,0.296 0.59755,0.4138 1.61345,0.5136 0.92175,0.09 1.49896,0.1754 1.82799,0.269 0.95386,0.2712 1.54315,0.8069 1.77801,1.6163 0.0651,0.2244 0.0749,0.3296 0.0756,0.8063 6.3e-4,0.6087 -0.0304,0.7706 -0.22995,1.1976 -0.37287,0.798 -1.21842,1.3706 -2.38136,1.6128 -0.34169,0.071 -0.48315,0.082 -1.20924,0.091 -0.45225,0.01 -0.86581,0.01 -0.91902,0 z m 9.06124,0 c -0.0532,-0.01 -0.22733,-0.029 -0.38695,-0.048 -0.91564,-0.1111 -1.70718,-0.4567 -2.38878,-1.0429 l -0.22827,-0.1962 0.60958,-0.6048 c 0.33529,-0.3325 0.61884,-0.6046 0.63014,-0.6046 0.0114,0 0.0791,0.056 0.15075,0.1255 0.5929,0.5712 1.50034,0.8412 2.69158,0.801 0.74823,-0.025 1.21857,-0.177 1.53975,-0.496 0.21345,-0.2121 0.27807,-0.3673 0.29341,-0.7045 0.0165,-0.3645 -0.0591,-0.5968 -0.2508,-0.77 -0.28605,-0.2585 -0.50981,-0.3171 -1.54791,-0.4056 -0.96324,-0.082 -1.37332,-0.1404 -1.77354,-0.2513 -1.2752,-0.3534 -1.87465,-1.1305 -1.87309,-2.4281 6.1e-4,-0.5625 0.12741,-0.9969 0.41545,-1.4238 0.43409,-0.6433 1.1281,-1.0816 2.03806,-1.287 0.30819,-0.07 0.40953,-0.075 1.12863,-0.075 0.84611,0 1.16419,0.036 1.72807,0.1887 0.53673,0.1443 1.14207,0.4475 1.48045,0.7412 l 0.12899,0.112 -0.58344,0.585 -0.58342,0.5853 -0.21884,-0.1468 c -0.26097,-0.1751 -0.63544,-0.3251 -1.03279,-0.4139 -0.41391,-0.092 -1.29654,-0.1166 -1.64694,-0.045 -0.67964,0.1389 -1.04967,0.5239 -1.04967,1.0923 0,0.3439 0.0802,0.5548 0.27666,0.7272 0.2558,0.2246 0.54962,0.3027 1.47874,0.3927 0.37578,0.036 0.85013,0.088 1.05408,0.1144 1.42968,0.1856 2.25867,0.7613 2.55192,1.7719 0.0651,0.2244 0.0749,0.3295 0.0756,0.8063 8.3e-4,0.722 -0.0788,1.0067 -0.42551,1.5201 -0.32815,0.486 -0.84185,0.8614 -1.51238,1.1052 -0.59159,0.2152 -0.93495,0.2662 -1.86654,0.2774 -0.44339,0.01 -0.8497,0 -0.9029,0 z m 24.5718,-0.014 c -0.62421,-0.056 -1.31761,-0.3025 -1.82334,-0.6455 -0.22897,-0.1554 -0.60019,-0.5264 -0.78275,-0.7826 -0.41858,-0.5874 -0.6937,-1.4028 -0.79556,-2.3578 -0.0435,-0.4071 -0.0444,-1.3731 -0.002,-1.7469 0.14073,-1.2308 0.5474,-2.1787 1.22385,-2.8523 0.71034,-0.7074 1.54438,-1.0305 2.65919,-1.0303 0.88523,0 1.60614,0.2014 2.22317,0.6199 0.52988,0.3595 1.0019,0.9661 1.28991,1.658 0.3148,0.7561 0.37687,1.0904 0.39899,2.1479 l 0.0174,0.8302 h -3.01136 -3.01135 l 0.0222,0.3145 c 0.0828,1.1731 0.63423,1.9346 1.60731,2.2195 0.29717,0.087 1.30278,0.088 1.61045,0 0.44896,-0.1256 0.8576,-0.367 1.17766,-0.6951 0.088,-0.09 0.17301,-0.1641 0.18891,-0.1641 0.0159,0 0.28905,0.2491 0.60699,0.5535 l 0.57807,0.5535 -0.10596,0.1108 c -0.45739,0.4784 -1.20788,0.9344 -1.83721,1.1163 -0.5771,0.1669 -1.419,0.2227 -2.23503,0.1482 z m 2.53021,-5.6345 c -0.002,-0.2906 -0.0784,-0.6516 -0.20381,-0.9591 -0.21531,-0.5282 -0.49217,-0.837 -0.9398,-1.0485 -0.32266,-0.1525 -0.51559,-0.1933 -0.91546,-0.1933 -0.71613,0 -1.28787,0.2811 -1.64081,0.8068 -0.24646,0.367 -0.42268,0.9445 -0.4254,1.3941 l -8.3e-4,0.1852 h 2.06378 2.06376 z m 6.66002,5.637 c -0.54061,-0.072 -1.10959,-0.2965 -1.48715,-0.586 -0.68094,-0.5221 -1.08948,-1.5085 -1.20309,-2.9048 -0.0454,-0.5563 -0.0464,-1.8545 -0.002,-2.3817 0.0958,-1.1378 0.37163,-1.972 0.84537,-2.5566 0.2987,-0.3688 0.86995,-0.7124 1.45989,-0.8784 0.30236,-0.084 0.36168,-0.091 0.95127,-0.092 0.48522,0 0.68097,0.011 0.85718,0.054 0.50954,0.1228 0.89391,0.3359 1.30573,0.7245 l 0.22333,0.2107 v -2.3256 -2.3257 h 0.93514 0.93515 v 6.4977 6.4976 h -0.9029 -0.9029 v -0.4732 -0.4731 l -0.24991,0.2416 c -0.39551,0.3823 -0.67398,0.5482 -1.15901,0.6905 -0.24692,0.072 -0.35773,0.085 -0.84833,0.095 -0.31037,0.01 -0.65138,0 -0.75779,-0.015 z m 1.82027,-1.7425 c 0.57438,-0.25 0.86492,-0.6851 1.05578,-1.5809 0.0502,-0.2356 0.0581,-0.4307 0.0565,-1.3866 -0.002,-1.0144 -0.008,-1.1399 -0.0705,-1.421 -0.18509,-0.8295 -0.4884,-1.2575 -1.05445,-1.4883 -0.25539,-0.1041 -0.26829,-0.1058 -0.75961,-0.1052 -0.4905,0 -0.50454,0 -0.75301,0.1056 -0.75557,0.314 -1.08791,1.0091 -1.14407,2.3929 -0.0837,2.063 0.23178,3.072 1.07926,3.4524 0.32304,0.1448 0.40148,0.1576 0.89843,0.1462 0.42677,-0.01 0.46459,-0.016 0.69165,-0.1151 z m 8.98231,1.7399 c -0.62422,-0.056 -1.31762,-0.3024 -1.82335,-0.6455 -0.22897,-0.1553 -0.6002,-0.5265 -0.78275,-0.7827 -0.41858,-0.5873 -0.6937,-1.4026 -0.79556,-2.3577 -0.0435,-0.4073 -0.0444,-1.373 -0.002,-1.7469 0.14073,-1.2309 0.5474,-2.1786 1.22385,-2.8524 0.71034,-0.7073 1.54438,-1.0305 2.6592,-1.0302 0.88523,0 1.60613,0.2014 2.22317,0.6199 0.52986,0.3595 1.00188,0.9661 1.28991,1.658 0.3148,0.7561 0.37686,1.0903 0.39899,2.1478 l 0.0174,0.8303 h -3.01143 -3.01134 l 0.0222,0.3146 c 0.0828,1.173 0.63448,1.9349 1.60732,2.2194 0.1718,0.05 0.31426,0.061 0.79004,0.061 0.54918,0 0.59606,-0.01 0.87064,-0.092 0.4819,-0.1532 0.72572,-0.2956 1.10132,-0.6433 0.10844,-0.1004 0.20768,-0.1826 0.22056,-0.1826 0.0129,0 0.28355,0.2492 0.60154,0.5537 l 0.57817,0.5536 -0.12217,0.1263 c -0.37237,0.3849 -1.03034,0.8142 -1.54409,1.0076 -0.63869,0.2404 -1.55621,0.3285 -2.51213,0.2413 z m 2.53021,-5.6345 c -0.005,-0.6367 -0.30833,-1.3685 -0.72441,-1.7414 -0.18456,-0.1653 -0.59717,-0.3715 -0.84807,-0.4239 -0.27261,-0.056 -0.76877,-0.045 -1.04589,0.025 -0.50794,0.13 -0.84783,0.3774 -1.13953,0.8295 -0.23819,0.3693 -0.36852,0.8415 -0.36852,1.3355 v 0.159 h 2.06378 2.06376 z m 14.01221,5.6457 c -0.61555,-0.099 -1.16413,-0.3174 -1.53741,-0.6121 -0.65162,-0.5149 -1.00738,-1.4606 -0.91988,-2.4459 0.10353,-1.166 0.84932,-1.9792 2.07033,-2.2575 0.46437,-0.1057 1.1116,-0.1449 2.39902,-0.1449 h 1.13197 l -0.002,-0.5078 c -0.002,-0.7312 -0.0941,-1.0539 -0.39488,-1.3662 -0.16073,-0.1668 -0.45194,-0.3217 -0.76544,-0.4068 -0.30768,-0.084 -1.40912,-0.082 -1.70907,0 -0.36423,0.1026 -0.6033,0.243 -0.91047,0.5342 l -0.28598,0.2714 -0.58983,-0.5868 -0.58985,-0.5867 0.30117,-0.2879 c 0.85186,-0.8144 1.63594,-1.0646 3.20361,-1.0226 0.56923,0.015 0.7654,0.035 1.09636,0.102 1.30695,0.2704 2.06104,0.9055 2.39447,2.0167 l 0.1016,0.3387 0.011,3.4422 0.0111,3.4424 h -0.92052 -0.92052 v -0.4064 -0.4062 l -0.1743,0.1592 c -0.35308,0.3228 -0.73139,0.5266 -1.21229,0.6534 -0.23669,0.062 -0.37094,0.074 -0.98353,0.081 -0.39017,0.01 -0.75296,0 -0.80616,-0.01 z m 1.79491,-1.573 c 0.45505,-0.09 0.74625,-0.2434 0.99192,-0.5225 0.27978,-0.3177 0.3572,-0.6395 0.3572,-1.4845 v -0.5985 l -1.26568,0.016 c -1.27425,0.018 -1.43322,0.032 -1.76548,0.1536 -0.33516,0.1229 -0.60506,0.3994 -0.71567,0.7334 -0.0853,0.2575 -0.0837,0.7124 0.004,0.9414 0.0355,0.093 0.10197,0.2262 0.14784,0.2955 0.13945,0.2107 0.48697,0.3966 0.88943,0.4755 0.24079,0.046 1.09622,0.04 1.35715,-0.012 z m 34.09539,1.5759 c -0.0532,-0.01 -0.22734,-0.029 -0.38697,-0.048 -0.91561,-0.1111 -1.70717,-0.4565 -2.38877,-1.0428 l -0.22826,-0.1963 0.6096,-0.6046 c 0.33527,-0.3326 0.62047,-0.6046 0.63377,-0.6046 0.0134,0 0.0594,0.036 0.10239,0.084 0.20126,0.2147 0.71486,0.5157 1.11158,0.6514 0.4396,0.1504 0.70166,0.1839 1.43343,0.1826 0.60452,0 0.72428,-0.01 0.93523,-0.069 0.50666,-0.1421 0.81272,-0.3475 0.98316,-0.6596 0.0799,-0.1465 0.0962,-0.217 0.10678,-0.4629 0.0155,-0.3648 -0.0604,-0.5974 -0.25153,-0.77 -0.28465,-0.2572 -0.50931,-0.3168 -1.53178,-0.4056 -1.31819,-0.1144 -1.79844,-0.2079 -2.32584,-0.4524 -0.89419,-0.4148 -1.30787,-1.126 -1.30482,-2.2436 0.002,-0.5482 0.13042,-0.9846 0.4156,-1.4074 0.43405,-0.643 1.12756,-1.081 2.03806,-1.287 0.30993,-0.07 0.40679,-0.076 1.14474,-0.075 0.68166,0 0.86486,0.015 1.1861,0.074 0.51859,0.096 0.94204,0.2359 1.34906,0.446 0.3095,0.1599 0.73786,0.4617 0.73786,0.5199 0,0.014 -0.25993,0.2828 -0.57763,0.6 l -0.57763,0.577 -0.12372,-0.096 c -0.28758,-0.224 -0.74978,-0.4048 -1.26459,-0.4944 -0.45648,-0.079 -1.17959,-0.087 -1.52543,-0.015 -0.66094,0.137 -1.02997,0.527 -1.02997,1.0886 0,0.3463 0.0801,0.5548 0.28097,0.731 0.25143,0.2209 0.53467,0.295 1.4805,0.3876 0.98134,0.096 1.41193,0.1573 1.75327,0.2487 1.0284,0.2752 1.63003,0.8062 1.87587,1.6556 0.0698,0.2414 0.0792,0.3365 0.0792,0.8057 0,0.5909 -0.0326,0.7578 -0.23059,1.1815 -0.37288,0.7979 -1.21843,1.3705 -2.38139,1.6129 -0.3417,0.071 -0.48315,0.082 -1.20923,0.091 -0.45225,0.01 -0.86582,0 -0.91903,0 z m 26.79679,-0.011 c -1.2489,-0.1643 -2.21166,-1.0119 -2.51283,-2.2123 -0.11541,-0.4601 -0.12418,-0.7089 -0.138,-3.9253 l -0.0135,-3.1843 h 0.9353 0.93533 l 0.0125,3.0231 c 0.0142,3.3885 0.005,3.2678 0.24996,3.769 0.29859,0.6135 0.82499,0.9148 1.59851,0.9148 0.20565,0 0.41989,-0.02 0.5364,-0.05 0.637,-0.165 1.08989,-0.5987 1.29264,-1.2377 0.0656,-0.2071 0.0674,-0.2757 0.0778,-3.3152 l 0.0105,-3.1037 h 0.93423 0.93422 v 4.6274 4.6273 h -0.91903 -0.91901 v -0.4544 -0.4545 l -0.2256,0.2088 c -0.35421,0.328 -0.79421,0.56 -1.33836,0.7057 -0.25524,0.068 -1.12054,0.105 -1.45108,0.062 z m 16.99391,0 c -0.62423,-0.056 -1.31764,-0.3025 -1.82335,-0.6455 -0.22896,-0.1553 -0.60019,-0.5265 -0.78274,-0.7825 -0.41861,-0.5875 -0.69372,-1.4028 -0.79555,-2.3579 -0.0435,-0.4071 -0.0444,-1.373 -0.002,-1.7468 0.14071,-1.2309 0.54741,-2.1787 1.22383,-2.8523 0.71036,-0.7075 1.54439,-1.0306 2.65919,-1.0302 0.88521,0 1.60616,0.2012 2.2232,0.6197 0.52983,0.3595 1.00186,0.9662 1.28989,1.658 0.31481,0.7563 0.37689,1.0904 0.399,2.1479 l 0.0174,0.8304 h -3.01135 -3.01132 l 0.0222,0.3144 c 0.0828,1.1732 0.63421,1.9346 1.60729,2.2196 0.29718,0.087 1.30279,0.088 1.61048,0 0.44892,-0.1258 0.8576,-0.367 1.17763,-0.6953 0.088,-0.09 0.17302,-0.1641 0.18894,-0.1641 0.0158,0 0.28903,0.2491 0.60695,0.5536 l 0.57808,0.5535 -0.10595,0.1108 c -0.45737,0.4784 -1.20786,0.9345 -1.83723,1.1164 -0.57709,0.1668 -1.419,0.2226 -2.23503,0.1481 z m 2.53019,-5.6345 c -0.002,-0.2905 -0.0785,-0.6516 -0.20383,-0.959 -0.21526,-0.5281 -0.49216,-0.837 -0.93979,-1.0486 -0.32263,-0.1524 -0.51557,-0.1932 -0.91545,-0.1932 -0.71612,0 -1.28786,0.2811 -1.6408,0.8067 -0.24646,0.3671 -0.42267,0.9446 -0.42541,1.3941 l -0.002,0.1855 h 2.06379 2.06378 z m 11.38852,5.6156 c -1.28739,-0.2158 -2.39571,-1.1769 -2.77845,-2.4094 -0.19486,-0.6276 -0.25847,-1.189 -0.25805,-2.2791 0,-1.2706 0.10469,-1.9342 0.412,-2.6257 0.47695,-1.0729 1.47879,-1.828 2.70158,-2.0365 0.46617,-0.079 1.29992,-0.05 1.74046,0.062 0.71435,0.181 1.16876,0.4336 1.66294,0.9245 0.70006,0.6955 1.00592,1.4062 1.128,2.6212 0.061,0.6071 0.0245,2.1646 -0.0622,2.6472 -0.17771,0.9902 -0.47515,1.5639 -1.14044,2.2 -0.53877,0.515 -1.11801,0.7856 -1.95915,0.9152 -0.29585,0.045 -1.12661,0.035 -1.44671,-0.019 z m 1.28342,-1.6454 c 0.47522,-0.1181 0.92908,-0.4493 1.14306,-0.8342 0.25927,-0.4665 0.37431,-1.1402 0.37431,-2.1927 0,-1.3604 -0.18212,-2.0765 -0.64376,-2.5314 -0.55114,-0.5431 -1.54314,-0.6805 -2.27215,-0.3148 -0.62138,0.3117 -0.89559,0.7885 -1.03338,1.7962 -0.1077,0.7884 -0.0524,2.0879 0.11564,2.7107 0.19403,0.7195 0.64465,1.1856 1.32221,1.3678 0.23815,0.064 0.7331,0.064 0.99407,0 z m 28.10487,1.6643 c -0.62421,-0.056 -1.31762,-0.3024 -1.82339,-0.6454 -0.22895,-0.1553 -0.60016,-0.5265 -0.78272,-0.7826 -0.41858,-0.5874 -0.6937,-1.4028 -0.79555,-2.3578 -0.0435,-0.4072 -0.0444,-1.373 -0.002,-1.7468 0.14069,-1.2309 0.54739,-2.1787 1.22383,-2.8524 0.71036,-0.7074 1.54438,-1.0305 2.65921,-1.0302 0.88522,0 1.60613,0.2012 2.22317,0.6197 0.52986,0.3595 1.00188,0.9662 1.28988,1.6581 0.31479,0.7562 0.37691,1.0904 0.399,2.1479 l 0.0172,0.8303 h -3.01132 -3.01135 l 0.0222,0.3144 c 0.0828,1.1732 0.63422,1.9348 1.60731,2.2196 0.29718,0.087 1.30279,0.088 1.61048,0 0.44892,-0.1257 0.8576,-0.367 1.17761,-0.6952 0.088,-0.09 0.17301,-0.1641 0.18891,-0.1641 0.0158,0 0.28909,0.249 0.607,0.5535 l 0.57809,0.5535 -0.10595,0.1108 c -0.45739,0.4785 -1.20789,0.9345 -1.83724,1.1164 -0.5771,0.1668 -1.419,0.2226 -2.235,0.1483 z m 2.53019,-5.6345 c -0.002,-0.2905 -0.0785,-0.6516 -0.20381,-0.959 -0.21532,-0.5281 -0.49219,-0.837 -0.93978,-1.0486 -0.32268,-0.1524 -0.5156,-0.1932 -0.91549,-0.1932 -0.71611,0 -1.28787,0.2811 -1.6408,0.8067 -0.24647,0.3671 -0.4227,0.9446 -0.42542,1.3941 l -0.002,0.1855 h 2.06374 2.06381 z m 7.45007,5.6522 c -0.0266,-0.01 -0.1572,-0.029 -0.29025,-0.051 -0.33564,-0.055 -0.6917,-0.1656 -1.00945,-0.3145 -1.25897,-0.59 -2.01696,-1.7822 -2.21432,-3.4827 -0.0454,-0.39 -0.0445,-1.3404 0.002,-1.7221 0.22882,-1.9069 1.17065,-3.1858 2.6986,-3.6645 0.53582,-0.1679 0.64932,-0.1825 1.41078,-0.1816 0.75195,0 0.99326,0.035 1.46726,0.2124 0.45569,0.1696 1.02365,0.543 1.38028,0.9075 l 0.17103,0.1747 -0.62981,0.6051 -0.62981,0.6052 -0.23454,-0.2147 c -0.31015,-0.2838 -0.52474,-0.4233 -0.8075,-0.5248 -0.20974,-0.075 -0.28174,-0.084 -0.71691,-0.086 -0.4534,0 -0.50069,0 -0.75605,0.09 -0.832,0.2855 -1.31745,0.9302 -1.469,1.951 -0.057,0.384 -0.0678,1.5182 -0.0181,1.9071 0.0651,0.5101 0.17424,0.8323 0.39824,1.176 0.27185,0.4172 0.64309,0.7154 1.09043,0.8759 0.21874,0.078 0.28006,0.086 0.73838,0.086 0.46,0 0.51844,-0.01 0.733,-0.084 0.2854,-0.1037 0.51422,-0.2526 0.81322,-0.5295 l 0.22796,-0.211 0.63,0.6054 0.6301,0.6053 -0.17084,0.174 c -0.48368,0.4923 -1.13066,0.8538 -1.81544,1.0142 -0.23328,0.056 -0.41665,0.07 -0.93514,0.076 -0.35468,0.01 -0.66668,0 -0.69327,0 z m 29.22602,-0.035 c -0.40313,-0.068 -0.80203,-0.2093 -1.16794,-0.4147 -0.80615,-0.4524 -1.36128,-1.1348 -1.6425,-2.0186 -0.19718,-0.6198 -0.26428,-1.1878 -0.26465,-2.2399 0,-1.2276 0.111,-1.932 0.41297,-2.612 0.3309,-0.7453 0.80056,-1.2496 1.54309,-1.6568 0.59259,-0.325 1.13594,-0.4551 1.90212,-0.4552 0.74792,0 1.28628,0.1266 1.87819,0.4429 0.73178,0.391 1.22741,0.9213 1.55941,1.6691 0.32709,0.7364 0.43,1.4729 0.4035,2.8853 -0.0186,0.9908 -0.0694,1.3836 -0.252,1.9551 -0.20032,0.6268 -0.4401,1.014 -0.916,1.4799 -0.5356,0.5241 -1.17488,0.845 -1.92632,0.967 -0.36978,0.06 -1.16703,0.059 -1.52987,0 z m 1.27703,-1.6459 c 0.30528,-0.074 0.60648,-0.2434 0.81603,-0.4563 0.50945,-0.5176 0.66938,-1.1317 0.66938,-2.571 0,-1.4581 -0.16825,-2.0904 -0.68535,-2.5753 -0.23808,-0.2232 -0.42608,-0.3248 -0.75787,-0.4096 -0.60803,-0.1556 -1.30372,-0.024 -1.76531,0.3365 -0.1611,0.1255 -0.22641,0.2029 -0.37982,0.4508 -0.27131,0.4383 -0.37878,1.0617 -0.37878,2.1976 0,1.3223 0.1475,1.9673 0.56513,2.4723 0.10625,0.1283 0.40837,0.3539 0.58043,0.4333 0.38135,0.1759 0.91754,0.2247 1.33616,0.1217 z m 14.07229,1.6459 c -0.40314,-0.068 -0.802,-0.2093 -1.16791,-0.4147 -0.80613,-0.4524 -1.36135,-1.1348 -1.64254,-2.0186 -0.19719,-0.6198 -0.26431,-1.1878 -0.26465,-2.2399 0,-1.2276 0.11096,-1.932 0.41294,-2.612 0.3309,-0.7453 0.80056,-1.2496 1.54316,-1.6568 0.59259,-0.325 1.13586,-0.4551 1.90214,-0.4552 0.74786,0 1.28622,0.1266 1.87811,0.4429 0.7318,0.391 1.2275,0.9213 1.5595,1.6691 0.32703,0.7364 0.43,1.4729 0.40343,2.8853 -0.0188,0.9908 -0.0692,1.3836 -0.252,1.9551 -0.20032,0.6268 -0.44003,1.014 -0.91597,1.4799 -0.53562,0.5241 -1.17485,0.845 -1.92635,0.967 -0.36972,0.06 -1.16705,0.059 -1.52986,0 z m 1.27705,-1.6459 c 0.30529,-0.074 0.6065,-0.2434 0.81604,-0.4563 0.50946,-0.5176 0.66937,-1.1317 0.66937,-2.571 0,-1.4581 -0.16825,-2.0904 -0.68537,-2.5753 -0.23809,-0.2232 -0.42609,-0.3248 -0.75788,-0.4096 -0.60803,-0.1556 -1.30371,-0.024 -1.76525,0.3365 -0.16118,0.1255 -0.22641,0.2029 -0.37987,0.4508 -0.27131,0.4383 -0.37875,1.0617 -0.37875,2.1976 0,1.3223 0.14744,1.9673 0.56512,2.4723 0.10623,0.1283 0.40832,0.3539 0.5804,0.4333 0.38135,0.1759 0.9175,0.2247 1.33619,0.1217 z m 41.58382,1.6648 c -1.23053,-0.1469 -2.21172,-1.0099 -2.51281,-2.2099 -0.11544,-0.46 -0.12419,-0.7089 -0.13803,-3.9253 l -0.0134,-3.1844 h 0.93533 0.93532 l 0.0119,3.0231 c 0.0119,2.9534 0.0135,3.029 0.0804,3.281 0.11113,0.4211 0.23653,0.6626 0.46507,0.8955 0.34696,0.3535 0.74756,0.5078 1.31666,0.5069 0.60377,0 1.00094,-0.1524 1.36111,-0.5184 0.23041,-0.234 0.3481,-0.4325 0.45675,-0.7707 0.0661,-0.206 0.0675,-0.2677 0.077,-3.3137 l 0.009,-3.1037 h 0.93425 0.93425 v 4.6275 4.6273 h -0.91902 -0.91907 v -0.4419 -0.4419 l -0.12093,0.1149 c -0.47925,0.4556 -1.1246,0.7585 -1.77442,0.8329 -0.31252,0.035 -0.82358,0.035 -1.11968,0 z m 23.6696,0 c -1.51207,-0.2355 -2.62238,-1.1748 -3.11039,-2.6312 -0.20206,-0.603 -0.29337,-1.2439 -0.29337,-2.0589 0,-1.0886 0.16647,-1.8916 0.54829,-2.6448 0.54409,-1.0733 1.36825,-1.6981 2.64519,-2.0051 0.35292,-0.085 1.51181,-0.084 1.90246,0 0.71435,0.1565 1.26737,0.4548 1.80125,0.971 l 0.26971,0.2606 -0.63161,0.6068 -0.63163,0.6069 -0.23453,-0.2145 c -0.31013,-0.2839 -0.52473,-0.4235 -0.80747,-0.5249 -0.20978,-0.075 -0.28178,-0.084 -0.71687,-0.086 -0.44939,0 -0.50203,0 -0.7417,0.087 -0.31721,0.1101 -0.54102,0.25 -0.80421,0.5026 -0.52419,0.5034 -0.7295,1.1971 -0.729,2.4637 0,0.9828 0.1116,1.5336 0.41178,2.0391 0.24341,0.4096 0.68934,0.7666 1.15369,0.9232 0.19913,0.066 0.28272,0.076 0.70944,0.075 0.43771,0 0.5058,-0.01 0.71687,-0.086 0.28513,-0.1032 0.51393,-0.2521 0.81322,-0.5291 l 0.22793,-0.2111 0.63228,0.6076 0.63229,0.6074 -0.27262,0.2601 c -0.52229,0.4982 -1.03738,0.7736 -1.75036,0.9356 -0.2685,0.061 -1.44271,0.091 -1.74064,0.045 z m -334.67571,-4.6907 -1.43544,-4.6278 0.98618,0.01 0.98617,0.01 0.90197,3.2526 0.90198,3.2528 1.08138,-3.2599 1.08136,-3.2599 0.70676,0.01 0.70676,0.01 1.08392,3.2518 1.08391,3.2517 0.88579,-3.2593 0.88578,-3.2592 h 0.99534 0.99532 l -0.0146,0.074 c -0.008,0.04 -0.65079,2.1223 -1.4282,4.6275 l -1.41346,4.5548 h -0.814 -0.81399 l -1.07761,-3.2328 -1.0776,-3.2327 -1.07742,3.2327 -1.07741,3.2328 h -0.80866 -0.80865 z m 13.48426,0 v -4.6273 h 0.93512 0.93516 v 4.6273 4.6275 h -0.93516 -0.93512 z m 27.6352,-1.8702 v -6.4977 h 4.15979 4.15978 v 0.8867 0.8869 h -3.16014 -3.16016 v 1.9831 1.9831 h 2.69258 2.69259 v 0.8869 0.8868 h -2.69259 -2.69258 v 2.7409 2.741 h -0.99963 -0.99964 z m 39.82437,1.8702 v -4.6273 h 0.9029 0.9029 v 0.5042 0.5043 l 0.26725,-0.2544 c 0.43203,-0.4111 0.90137,-0.6516 1.53857,-0.788 0.6353,-0.136 1.55225,-0.046 2.04763,0.2034 0.19857,0.1 0.56705,0.3618 0.70085,0.4989 l 0.12037,0.1232 -0.69215,0.6916 -0.69212,0.6917 -0.12156,-0.1155 c -0.34849,-0.3309 -0.73007,-0.4793 -1.23189,-0.4793 -0.91383,0 -1.54637,0.516 -1.81793,1.4833 -0.0665,0.2365 -0.0681,0.3079 -0.0792,3.2166 l -0.0114,2.9748 h -0.91715 -0.9172 z m 19.5091,4.5937 c -0.83621,-0.1197 -1.50053,-0.6306 -1.80103,-1.3851 -0.22537,-0.5659 -0.2098,-0.1345 -0.2219,-6.151 l -0.0108,-5.4255 h 0.93629 0.9363 v 5.1191 c 0,3.3949 0.0115,5.2169 0.0342,5.4094 0.0389,0.3306 0.14234,0.5817 0.29136,0.7072 0.1686,0.1419 0.3725,0.1795 0.97006,0.1795 h 0.54244 v 0.7902 0.79 h -0.74975 c -0.41234,0 -0.82954,-0.015 -0.92707,-0.03 z m 8.35184,-6.4639 v -6.4977 h 0.99964 0.99963 v 6.4977 6.4977 h -0.99963 -0.99964 z m 5.19168,1.8702 v -4.6273 h 0.9029 0.9029 v 0.4675 c 0,0.2573 0.009,0.4676 0.0201,0.4676 0.011,0 0.1149,-0.089 0.2308,-0.1971 0.35487,-0.3319 0.76902,-0.5614 1.31307,-0.7271 0.27409,-0.084 0.32513,-0.089 0.91904,-0.088 0.61105,0 0.63908,0 0.994,0.1041 0.5884,0.1674 1.05223,0.4363 1.41195,0.8184 0.4316,0.4585 0.70455,1.0826 0.7867,1.799 0.0184,0.1599 0.0315,1.5956 0.0316,3.4425 v 3.1682 h -0.93517 -0.93514 v -3.007 c 0,-2.8538 -0.004,-3.0201 -0.0622,-3.265 -0.0978,-0.4075 -0.2265,-0.6585 -0.4589,-0.8953 -0.34696,-0.3535 -0.7476,-0.5077 -1.31669,-0.5068 -0.60376,0 -1.00092,0.1521 -1.36116,0.5181 -0.33498,0.3403 -0.4816,0.6963 -0.54184,1.3152 -0.0166,0.1708 -0.0306,1.5548 -0.031,3.0756 v 2.7652 h -0.93514 -0.93516 z m 21.63736,4.6046 c -0.21654,-0.025 -0.66261,-0.1784 -0.87065,-0.3009 -0.56784,-0.3347 -0.92758,-0.8471 -1.10335,-1.5718 -0.0662,-0.2729 -0.0685,-0.3637 -0.081,-3.1108 l -0.0129,-2.8295 h -0.53 -0.53001 v -0.7095 -0.7094 h 0.53206 0.53208 v -1.322 -1.3222 h 0.91902 0.91903 v 1.3222 1.322 h 0.90289 0.9029 v 0.7094 0.7095 h -0.9029 -0.90289 l 0.002,2.5554 c 0,1.4192 0.0146,2.6605 0.0315,2.7913 0.0529,0.4077 0.21167,0.6636 0.50452,0.8132 0.14509,0.075 0.19564,0.081 0.7124,0.091 l 0.55626,0.011 v 0.7874 0.7873 l -0.7336,-0.01 c -0.40348,0 -0.78441,-0.011 -0.84647,-0.018 z m 3.96632,-4.6046 v -4.6273 h 0.93514 0.93515 v 4.6273 4.6275 h -0.93515 -0.93514 z m 7.11033,4.5952 c -0.99029,-0.1477 -1.70726,-0.8301 -1.95785,-1.8633 -0.0662,-0.2729 -0.0685,-0.3637 -0.081,-3.1108 l -0.0129,-2.8295 h -0.53002 -0.53 v -0.7095 -0.7094 h 0.53205 0.53207 v -1.322 -1.3222 h 0.93512 0.93518 v 1.3222 1.322 h 0.88678 0.88675 v 0.7094 0.7095 h -0.88675 -0.88678 v 2.5554 c 0.002,3.089 0.006,3.158 0.31692,3.4589 0.20128,0.1954 0.38355,0.2414 0.95731,0.2414 h 0.49859 v 0.7902 0.79 h -0.71747 c -0.39462,0 -0.79004,-0.015 -0.87872,-0.028 z m 16.67143,0 c -0.99029,-0.1477 -1.70727,-0.8301 -1.95789,-1.8633 -0.0662,-0.2729 -0.0685,-0.3637 -0.081,-3.1108 l -0.0126,-2.8295 h -0.53 -0.53 v -0.7095 -0.7094 h 0.53203 0.53208 v -1.322 -1.3222 h 0.93511 0.93518 v 1.3222 1.322 h 0.8868 0.88675 v 0.7094 0.7095 h -0.88675 -0.8868 v 2.5554 c 0,2.8707 0.006,2.973 0.19453,3.2935 0.0866,0.1478 0.15018,0.2117 0.28847,0.2902 0.17683,0.1002 0.17895,0.1005 0.73361,0.1112 l 0.55623,0.011 v 0.7872 0.7875 h -0.71744 c -0.39464,0 -0.79009,-0.015 -0.87875,-0.028 z m 28.29626,-3.8857 v -3.9179 h -0.53206 -0.53207 v -0.7095 -0.7094 h 0.5274 0.52741 l 0.0175,-0.798 c 0.0145,-0.654 0.0301,-0.8531 0.0866,-1.1022 0.16686,-0.7352 0.54341,-1.264 1.13436,-1.5934 0.44254,-0.2465 1.00029,-0.3438 1.97288,-0.3438 h 0.50617 v 0.7854 0.7851 l -0.524,0.016 c -0.42147,0.015 -0.55876,0.031 -0.70171,0.085 -0.20175,0.075 -0.38454,0.2377 -0.46955,0.4152 -0.0906,0.1888 -0.14134,0.6206 -0.1421,1.209 v 0.54 h 0.91904 0.91902 v 0.7095 0.7095 h -0.91902 -0.91904 v 3.9178 3.918 h -0.93511 -0.93514 z m 12.76958,-1.6929 v -5.6109 h -1.78967 -1.78967 v -0.8869 -0.8867 h 4.579 4.57901 v 0.8867 0.8869 h -1.80579 -1.80583 v 5.6109 5.6109 h -0.98355 -0.9835 z m 24.89428,-0.8868 v -6.4977 h 0.93514 0.93515 v 2.3406 2.3405 l 0.20152,-0.1834 c 0.40244,-0.3663 0.86419,-0.6218 1.37857,-0.7627 0.245,-0.066 0.3391,-0.075 0.88675,-0.072 0.57893,0 0.63135,0.01 0.95128,0.1001 1.26569,0.3618 2.04004,1.2874 2.19304,2.6214 0.0184,0.1598 0.0315,1.5955 0.0316,3.4424 v 3.1682 h -0.93519 -0.93515 v -3.0003 c 0,-3.3218 0.004,-3.2809 -0.20697,-3.7232 -0.3019,-0.638 -0.84225,-0.952 -1.63569,-0.9506 -0.59869,0 -0.99731,0.1533 -1.35644,0.5181 -0.33497,0.3404 -0.48162,0.6963 -0.54184,1.3152 -0.0165,0.1708 -0.0306,1.5548 -0.0309,3.0756 l -0.004,2.7652 h -0.93515 -0.93513 z m 10.4156,1.8702 v -4.6273 h 0.90291 0.9029 v 0.4675 c 0,0.2573 0.009,0.4676 0.02,0.4676 0.0109,0 0.1149,-0.089 0.23082,-0.1971 0.35471,-0.3319 0.76837,-0.5609 1.31306,-0.7274 0.277,-0.085 0.31962,-0.088 0.93512,-0.086 0.61881,0 0.658,0.01 0.96741,0.099 0.56612,0.1693 1.11228,0.4875 1.43915,0.8384 0.30894,0.3316 0.55882,0.8356 0.69275,1.3971 0.0526,0.2205 0.0582,0.5173 0.0684,3.618 l 0.0109,3.3778 h -0.92028 -0.92025 v -3.007 c 0,-2.8538 -0.004,-3.0201 -0.0622,-3.265 -0.0978,-0.4074 -0.22646,-0.6584 -0.45888,-0.8953 -0.347,-0.3535 -0.74758,-0.5077 -1.31667,-0.5068 -0.94166,0 -1.6056,0.4783 -1.85089,1.3292 -0.0996,0.3455 -0.11459,0.8111 -0.11544,3.5796 v 2.7653 h -0.919 -0.919 z m 22.18553,4.5937 c -0.83621,-0.1197 -1.50054,-0.6306 -1.801,-1.3851 -0.22538,-0.5659 -0.20981,-0.1345 -0.2219,-6.151 l -0.0109,-5.4255 h 0.93627 0.93633 v 5.1191 c 0,3.3949 0.0115,5.2169 0.0342,5.4094 0.0389,0.3306 0.14236,0.5817 0.29136,0.7072 0.16859,0.1419 0.3725,0.1795 0.97005,0.1795 h 0.54245 v 0.7902 0.79 h -0.74973 c -0.41237,0 -0.82956,-0.015 -0.92713,-0.03 z m 35.79359,-0.8 v -0.8338 l 2.98675,-4.7368 c 1.64275,-2.6053 2.99382,-4.755 3.00238,-4.7772 0.0125,-0.032 -0.57225,-0.04 -2.85781,-0.04 h -2.87334 v -0.8868 -0.8866 h 4.03077 4.03082 v 0.8303 0.8303 l -2.99582,4.7725 -2.99575,4.7724 2.99668,0.01 2.9967,0.01 v 0.8866 0.8865 h -4.15969 -4.15981 z m 21.12141,-3.7937 v -4.6273 h 0.9029 0.90291 v 0.5042 0.5043 l 0.26728,-0.2544 c 0.432,-0.4111 0.90131,-0.6516 1.5386,-0.788 0.29288,-0.064 0.39621,-0.069 0.82049,-0.054 0.39591,0.015 0.53894,0.034 0.77563,0.1043 0.46366,0.1376 0.90109,0.387 1.16835,0.6661 l 0.10415,0.1089 -0.69203,0.6915 -0.69206,0.6915 -0.12154,-0.1154 c -0.34852,-0.3309 -0.73009,-0.4794 -1.2319,-0.4794 -0.91381,0 -1.54641,0.5162 -1.81791,1.4834 -0.0664,0.2364 -0.0681,0.3079 -0.0792,3.2165 l -0.0114,2.9748 h -0.91715 -0.91719 z m 8.02937,0 v -4.6273 h 0.93513 0.93518 v 4.6273 4.6275 h -0.93518 -0.93513 z m 13.70475,-1.8702 v -6.4977 h 0.93516 0.93513 v 2.3406 2.3405 l 0.20153,-0.1834 c 0.43106,-0.3923 0.83553,-0.6108 1.44303,-0.7791 0.16924,-0.046 0.32762,-0.058 0.82232,-0.056 0.575,0 0.6325,0.01 0.93512,0.094 1.27738,0.3655 2.05578,1.2918 2.20918,2.629 0.0185,0.1598 0.0316,1.5956 0.0316,3.4425 v 3.1681 h -0.93515 -0.93519 v -3.0002 c 0,-3.3598 0.005,-3.2852 -0.22638,-3.7596 -0.29865,-0.6136 -0.825,-0.9149 -1.59847,-0.9149 -0.57987,0 -1.00678,0.157 -1.34915,0.4961 -0.34573,0.3424 -0.50713,0.7234 -0.56694,1.3378 -0.0166,0.1708 -0.0306,1.5548 -0.0309,3.0757 v 2.7651 h -0.93512 -0.93516 z m -327.1725,-5.5783 v -0.9836 h 0.99962 0.99966 v 0.9836 0.9834 h -0.99966 -0.99962 z m 126.11587,0 v -0.9836 h 0.99964 0.99965 v 0.9836 0.9834 h -0.99965 -0.99964 z m 187.28738,0 v -0.9836 h 0.98353 0.9835 v 0.9836 0.9834 h -0.9835 -0.98353 z m -310.27534,-7.7563 c -0.30835,-0.035 -0.74571,-0.1467 -1.02673,-0.2593 -0.45317,-0.1813 -0.75988,-0.3767 -1.34339,-0.8551 -0.0625,-0.051 -0.0475,-0.07 0.51703,-0.6297 0.31987,-0.3172 0.59397,-0.5766 0.60912,-0.5766 0.0152,0 0.1235,0.076 0.24075,0.1711 0.27975,0.2243 0.57738,0.387 0.91022,0.4972 0.25167,0.084 0.30714,0.089 0.80296,0.089 0.47491,0 0.5605,-0.01 0.79004,-0.079 0.27741,-0.086 0.61056,-0.2688 0.78562,-0.4318 0.14119,-0.1314 0.36942,-0.4811 0.45815,-0.7019 0.15734,-0.3913 0.18894,-0.6369 0.18983,-1.4753 l 8.2e-4,-0.7859 -0.22188,0.2092 c -0.37606,0.3548 -0.69673,0.5412 -1.18739,0.6904 -0.26828,0.081 -0.3195,0.086 -0.94471,0.086 -0.64076,0 -0.67094,0 -0.98353,-0.097 -1.20654,-0.3626 -1.90514,-1.1954 -2.15806,-2.5729 -0.0854,-0.4651 -0.11642,-0.9631 -0.11642,-1.8703 0,-0.9115 0.0302,-1.3985 0.11716,-1.8864 0.24771,-1.3909 0.97577,-2.2496 2.17782,-2.5688 0.31,-0.082 0.37979,-0.089 0.96303,-0.089 0.72556,0 0.95043,0.039 1.37603,0.2382 0.33431,0.1566 0.48587,0.2615 0.7945,0.5497 l 0.24794,0.2316 v -0.4869 -0.4869 h 0.9029 0.9029 v 4.8474 c 0,4.3056 -0.005,4.8814 -0.0518,5.1514 -0.16262,0.9536 -0.62762,1.7545 -1.34829,2.3224 -0.51432,0.4053 -1.06789,0.6409 -1.77519,0.7556 -0.31093,0.05 -1.2529,0.059 -1.6294,0.015 z m 1.83637,-5.8347 c 0.54514,-0.2374 0.8339,-0.6436 1.00925,-1.4197 0.0625,-0.277 0.0695,-0.4038 0.0709,-1.3221 8.4e-4,-0.8547 -0.006,-1.0609 -0.0561,-1.2999 -0.16308,-0.8011 -0.46584,-1.2372 -1.02771,-1.4802 -0.23233,-0.1007 -0.24574,-0.1025 -0.75249,-0.1039 -0.51127,0 -0.51824,0 -0.76913,0.104 -0.73321,0.3054 -1.05766,0.9659 -1.11236,2.2641 -0.0808,1.9185 0.22384,2.857 1.04755,3.2265 0.32304,0.145 0.40148,0.1577 0.89843,0.1463 0.42677,-0.01 0.46458,-0.016 0.69164,-0.1151 z m -11.92952,2.0973 c -0.78676,-0.1173 -1.46513,-0.47 -1.86463,-0.9696 -0.18478,-0.231 -0.44872,-0.7385 -0.55338,-1.0641 -0.10132,-0.3152 -0.2161,-0.9344 -0.25615,-1.3822 -0.0454,-0.5073 -0.0462,-2.0461 -8.3e-4,-2.5427 0.175,-1.9371 0.86823,-2.9444 2.30463,-3.3492 0.30451,-0.086 0.35845,-0.091 0.96741,-0.091 0.70565,0 0.87739,0.026 1.32655,0.2062 0.28914,0.1157 0.55457,0.2918 0.83435,0.5536 l 0.20921,0.1958 v -2.3256 -2.3253 h 0.93516 0.93514 v 6.5138 6.5137 h -0.91902 -0.91902 v -0.4749 -0.4748 l -0.24992,0.2447 c -0.38585,0.378 -0.67167,0.5483 -1.15902,0.6904 -0.24531,0.072 -0.3609,0.084 -0.84832,0.095 -0.31037,0.01 -0.64411,0 -0.74167,-0.015 z m 1.83638,-1.7426 c 0.57438,-0.2501 0.86494,-0.6852 1.05577,-1.581 0.0502,-0.2354 0.0581,-0.4306 0.0566,-1.3865 -0.002,-1.0144 -0.008,-1.1398 -0.0706,-1.421 -0.18508,-0.8294 -0.48838,-1.2575 -1.05442,-1.4881 -0.25538,-0.1043 -0.26828,-0.1059 -0.75961,-0.1055 -0.4905,0 -0.50456,0 -0.75301,0.1058 -0.75557,0.314 -1.08793,1.009 -1.14407,2.3929 -0.0837,2.0629 0.23178,3.072 1.07926,3.4522 0.32305,0.1449 0.40146,0.1578 0.89843,0.1462 0.42677,-0.01 0.46459,-0.016 0.69163,-0.115 z m 19.05932,1.7401 c -1.29838,-0.1261 -2.36424,-0.8165 -2.91174,-1.8861 -0.39735,-0.7763 -0.57171,-1.6269 -0.5718,-2.7894 0,-0.7399 0.0666,-1.3119 0.21333,-1.8321 0.4536,-1.608 1.48122,-2.6002 2.96018,-2.8581 0.36979,-0.065 1.10499,-0.065 1.50227,0 1.61122,0.2612 2.70328,1.4256 3.08345,3.2877 0.0371,0.1816 0.0575,0.5036 0.0689,1.0884 l 0.0164,0.8302 h -2.99521 -2.99521 l 0.0218,0.3144 c 0.0806,1.1626 0.6038,1.8946 1.55827,2.1799 0.19701,0.059 0.30727,0.066 0.83947,0.066 0.59387,0 0.62178,0 0.90856,-0.1 0.36896,-0.1221 0.7459,-0.3409 1.01946,-0.5915 0.11557,-0.106 0.22001,-0.1926 0.23206,-0.1926 0.0121,0 0.2838,0.2427 0.60389,0.5394 l 0.58195,0.5393 -0.28042,0.2675 c -0.87237,0.8321 -1.78222,1.174 -3.09773,1.164 -0.28379,0 -0.62479,-0.015 -0.7578,-0.026 z m 2.51522,-5.6225 c 0,-0.2672 -0.0895,-0.7186 -0.18902,-0.953 -0.26984,-0.6359 -0.76794,-1.084 -1.37958,-1.2413 -0.23123,-0.059 -0.737,-0.066 -0.98535,-0.015 -0.64152,0.1347 -1.22092,0.6783 -1.46216,1.3721 -0.0695,0.2001 -0.0913,0.3316 -0.10409,0.6316 l -0.0162,0.3789 h 2.06819 2.0682 z m 17.47758,5.6195 c -0.45477,-0.072 -0.84749,-0.2092 -1.25479,-0.4392 -1.25482,-0.7088 -1.82638,-1.8152 -1.8991,-3.6763 -0.0271,-0.6935 0.005,-1.5542 0.0711,-1.9919 0.20866,-1.3536 0.77025,-2.2258 1.81778,-2.8231 0.6219,-0.3547 1.14231,-0.4821 1.96835,-0.4821 0.75297,0 1.28622,0.1284 1.89493,0.4565 0.90904,0.4899 1.49311,1.248 1.75921,2.2835 0.14895,0.5795 0.17321,0.8632 0.17237,2.0162 -6.2e-4,0.9829 -0.008,1.1369 -0.0709,1.4861 -0.12131,0.6738 -0.32887,1.2266 -0.62372,1.6611 -0.51575,0.7601 -1.42487,1.3255 -2.40697,1.4967 -0.30152,0.054 -1.12836,0.06 -1.42817,0.014 z m 1.14604,-1.6576 c 0.29139,-0.075 0.63965,-0.263 0.85403,-0.4641 0.50743,-0.476 0.67639,-1.1171 0.67639,-2.5668 0,-1.4581 -0.16823,-2.0902 -0.68536,-2.5751 -0.35586,-0.3338 -0.73606,-0.4708 -1.30927,-0.4717 -0.72524,0 -1.25044,0.2768 -1.593,0.8433 -0.2734,0.4523 -0.37948,1.0683 -0.37948,2.2035 0,1.3217 0.14943,1.9751 0.56511,2.4713 0.0979,0.1167 0.3354,0.298 0.51952,0.3966 0.36879,0.1971 0.94361,0.2663 1.35206,0.163 z m 8.06032,1.6748 c -0.0532,-0.01 -0.22007,-0.029 -0.37083,-0.049 -0.93323,-0.1218 -1.72404,-0.4677 -2.42104,-1.059 l -0.21215,-0.1802 0.6096,-0.6045 c 0.33529,-0.3326 0.62032,-0.6047 0.63339,-0.6047 0.0131,0 0.0665,0.046 0.11849,0.099 0.14888,0.1562 0.47978,0.3804 0.73667,0.499 0.55724,0.2575 1.14127,0.3557 1.95167,0.3279 0.71198,-0.024 1.14537,-0.1589 1.47958,-0.4593 0.24011,-0.2158 0.33581,-0.4171 0.35385,-0.7438 0.0201,-0.3643 -0.0476,-0.5852 -0.23715,-0.7749 -0.27582,-0.2759 -0.5234,-0.341 -1.69608,-0.4465 -1.3063,-0.1175 -1.58627,-0.1699 -2.12298,-0.3969 -0.81978,-0.3468 -1.26595,-0.9854 -1.34584,-1.9259 -0.12888,-1.5177 0.74425,-2.6217 2.37394,-3.0021 0.62564,-0.146 1.88442,-0.1367 2.61574,0.019 0.63648,0.1356 1.26558,0.4013 1.68957,0.7135 l 0.22233,0.1637 -0.5993,0.5993 -0.5993,0.5994 -0.22957,-0.1527 c -0.48495,-0.3225 -1.05221,-0.4727 -1.87033,-0.4952 -0.40582,-0.011 -0.58873,0 -0.77088,0.035 -0.7704,0.163 -1.15035,0.6375 -1.05955,1.3234 0.0412,0.3109 0.19923,0.5241 0.50214,0.6774 0.2282,0.1155 0.60866,0.1819 1.39277,0.2433 0.43453,0.035 0.93516,0.084 1.11252,0.1116 1.32648,0.2048 2.09294,0.7774 2.37637,1.7754 0.0631,0.222 0.0735,0.3344 0.0738,0.8061 6.2e-4,0.6088 -0.0305,0.7707 -0.23003,1.1978 -0.3729,0.7979 -1.21878,1.3707 -2.38138,1.6126 -0.33989,0.071 -0.48503,0.082 -1.19311,0.091 -0.44339,0.01 -0.8497,0 -0.90291,0 z m 9.06125,0 c -0.0532,-0.01 -0.22007,-0.029 -0.37082,-0.049 -0.5217,-0.068 -1.16168,-0.2554 -1.56396,-0.4575 -0.25775,-0.1294 -0.62883,-0.3804 -0.88933,-0.6015 l -0.21216,-0.18 0.60961,-0.6046 c 0.33528,-0.3326 0.61885,-0.6047 0.63014,-0.6047 0.0114,0 0.0791,0.056 0.15074,0.1256 0.59301,0.5712 1.50092,0.8413 2.69158,0.8007 0.71199,-0.024 1.14538,-0.1589 1.47959,-0.4595 0.2349,-0.2111 0.33509,-0.4178 0.3538,-0.7297 0.0284,-0.471 -0.11718,-0.7682 -0.46728,-0.9547 -0.2722,-0.1451 -0.51087,-0.1919 -1.35262,-0.2655 -1.34903,-0.1179 -1.80743,-0.2043 -2.3204,-0.4381 -0.92987,-0.4238 -1.38703,-1.2928 -1.29752,-2.4664 0.0936,-1.2271 1.01226,-2.1414 2.46576,-2.4537 0.31795,-0.068 0.42647,-0.075 1.15701,-0.072 0.67995,0 0.86565,0.015 1.1861,0.074 0.49825,0.092 0.93192,0.2313 1.32913,0.4273 0.30662,0.1513 0.75779,0.4517 0.75779,0.5045 0,0.015 -0.26038,0.2848 -0.57864,0.6026 l -0.57863,0.578 -0.22761,-0.1512 c -0.25721,-0.1712 -0.69944,-0.3452 -1.08198,-0.4259 -0.38036,-0.08 -1.25467,-0.1 -1.56092,-0.035 -0.76835,0.1631 -1.15025,0.638 -1.06026,1.3182 0.0305,0.2309 0.11597,0.4025 0.26574,0.534 0.27401,0.2407 0.56958,0.3124 1.61377,0.3919 0.93767,0.071 1.17386,0.103 1.61015,0.2148 0.80276,0.2057 1.3718,0.6103 1.67211,1.1886 0.21091,0.4061 0.26368,0.6637 0.2643,1.2899 6.3e-4,0.7221 -0.079,1.0068 -0.4256,1.5201 -0.32816,0.486 -0.84186,0.8615 -1.51239,1.1054 -0.58776,0.2137 -0.93634,0.266 -1.85041,0.2773 -0.43452,0.01 -0.83358,0 -0.88679,0 z m 13.96272,0 c -0.0532,-0.01 -0.22009,-0.029 -0.37083,-0.049 -0.93322,-0.1218 -1.72404,-0.4677 -2.42104,-1.059 l -0.21215,-0.1802 0.6096,-0.6045 c 0.33529,-0.3326 0.62031,-0.6047 0.63339,-0.6047 0.0131,0 0.0664,0.046 0.1185,0.099 0.14888,0.1562 0.47977,0.3804 0.73664,0.499 0.55726,0.2575 1.14128,0.3557 1.95168,0.3279 0.71199,-0.024 1.14538,-0.1589 1.47959,-0.4593 0.2401,-0.2158 0.33581,-0.4171 0.35383,-0.7438 0.0201,-0.3643 -0.0475,-0.5852 -0.23714,-0.7749 -0.27581,-0.2759 -0.52339,-0.341 -1.69608,-0.4465 -1.3063,-0.1175 -1.58628,-0.1699 -2.12299,-0.3969 -0.81975,-0.3468 -1.26593,-0.9854 -1.34582,-1.9259 -0.12889,-1.5177 0.74425,-2.6217 2.37392,-3.0021 0.62566,-0.146 1.88444,-0.1367 2.61576,0.019 0.63649,0.1356 1.26558,0.4013 1.68955,0.7135 l 0.22235,0.1637 -0.5993,0.5993 -0.59931,0.5994 -0.22957,-0.1527 c -0.48494,-0.3225 -1.05221,-0.4727 -1.87032,-0.4952 -0.40581,-0.011 -0.58873,0 -0.77088,0.035 -0.7704,0.163 -1.15035,0.6375 -1.05955,1.3234 0.0412,0.3109 0.19924,0.5241 0.50214,0.6774 0.2282,0.1155 0.60866,0.1819 1.39279,0.2433 0.43451,0.035 0.93514,0.084 1.1125,0.1116 1.32649,0.2048 2.09294,0.7774 2.37637,1.7754 0.063,0.222 0.0734,0.3344 0.0738,0.8061 6.2e-4,0.6088 -0.0305,0.7707 -0.23005,1.1978 -0.3729,0.7979 -1.21877,1.3707 -2.38138,1.6126 -0.33987,0.071 -0.48503,0.082 -1.19311,0.091 -0.44339,0.01 -0.8497,0 -0.9029,0 z m 9.9648,-0.015 c -1.91107,-0.2978 -3.1079,-1.6582 -3.36836,-3.8291 -0.0458,-0.3817 -0.0465,-1.3321 -8.4e-4,-1.7221 0.24217,-2.0867 1.31798,-3.3895 3.12705,-3.7867 0.42099,-0.093 1.61002,-0.084 2.01541,0.014 0.69138,0.1664 1.33348,0.5255 1.81351,1.0141 l 0.16894,0.172 -0.62576,0.6253 -0.62576,0.6251 -0.23649,-0.2164 c -0.31209,-0.2856 -0.52625,-0.425 -0.80946,-0.5266 -0.20975,-0.075 -0.28175,-0.084 -0.71687,-0.087 -0.45345,0 -0.50073,0 -0.75609,0.091 -0.66911,0.2296 -1.1249,0.7057 -1.35089,1.4112 -0.13264,0.414 -0.1671,0.7254 -0.16755,1.5136 -6.4e-4,0.7477 0.0504,1.187 0.1835,1.59 0.21994,0.6653 0.73767,1.1938 1.38161,1.4102 0.19689,0.065 0.28545,0.075 0.6933,0.075 0.43275,0 0.48557,-0.01 0.70942,-0.092 0.30295,-0.1144 0.51471,-0.2536 0.82281,-0.5414 l 0.24176,-0.2256 0.63013,0.6053 0.63014,0.6054 -0.17084,0.1746 c -0.3565,0.3642 -0.92485,0.7379 -1.38009,0.9072 -0.43559,0.162 -0.69618,0.2028 -1.37047,0.2145 -0.35472,0.01 -0.73171,0 -0.83776,-0.019 z m 19.31499,0 c -0.15963,-0.014 -0.42808,-0.062 -0.59657,-0.1063 -1.64738,-0.4304 -2.58438,-1.659 -2.80432,-3.6774 -0.0446,-0.4097 -0.0451,-1.371 -0.002,-1.7628 0.13464,-1.1922 0.52053,-2.1126 1.1702,-2.7915 0.47228,-0.4937 1.01497,-0.8009 1.73173,-0.9803 0.39121,-0.098 1.24685,-0.1227 1.70954,-0.05 1.01713,0.1612 1.80723,0.6549 2.35407,1.4712 0.3156,0.471 0.51895,0.9518 0.66793,1.5792 0.10794,0.4545 0.1115,0.4911 0.12842,1.314 l 0.0174,0.8465 h -2.99521 -2.99519 l 0.0199,0.2983 c 0.0768,1.1533 0.62304,1.919 1.56364,2.1913 0.22425,0.065 0.32529,0.075 0.83554,0.074 0.55025,0 0.59636,-0.01 0.88677,-0.095 0.34858,-0.1077 0.74558,-0.328 1.03515,-0.5743 0.10885,-0.093 0.2164,-0.1819 0.23898,-0.1983 0.0295,-0.021 0.2065,0.1234 0.62671,0.5129 l 0.58571,0.5427 -0.13883,0.1433 c -0.52722,0.5437 -1.26029,0.9752 -1.96076,1.1542 -0.53666,0.137 -1.31607,0.1777 -2.07988,0.1085 z m 2.52031,-5.745 c -0.0291,-0.4188 -0.0956,-0.6674 -0.27881,-1.0441 -0.138,-0.2838 -0.19125,-0.3564 -0.40477,-0.5531 -0.43492,-0.4008 -0.8226,-0.5387 -1.44976,-0.5153 -0.31016,0.011 -0.43345,0.031 -0.62116,0.098 -0.40554,0.1452 -0.73632,0.4111 -1.00098,0.8044 -0.2225,0.3307 -0.31416,0.6464 -0.35118,1.2099 l -0.0195,0.2982 h 2.0735 2.0735 z m 20.5359,5.747 c -0.15962,-0.015 -0.42807,-0.064 -0.59657,-0.1083 -1.64737,-0.4304 -2.58439,-1.659 -2.80434,-3.6774 -0.0446,-0.4097 -0.0451,-1.371 -0.002,-1.7627 0.13463,-1.1921 0.52053,-2.1126 1.17022,-2.7916 0.47241,-0.4939 1.01604,-0.8014 1.73171,-0.9801 0.35501,-0.089 1.19498,-0.1214 1.62279,-0.064 1.67821,0.2278 2.81162,1.3984 3.20109,3.3058 0.0371,0.1818 0.0575,0.5039 0.069,1.0885 l 0.0164,0.8303 h -3.01108 -3.0111 l 0.0199,0.2982 c 0.0768,1.1535 0.623,1.919 1.56364,2.1915 0.22526,0.065 0.3249,0.075 0.85165,0.075 0.52463,0 0.62766,-0.01 0.85452,-0.075 0.3344,-0.096 0.81664,-0.3696 1.08628,-0.6166 0.11741,-0.1075 0.22335,-0.1957 0.23541,-0.1957 0.0119,0 0.28361,0.2427 0.6035,0.539 l 0.58155,0.539 -0.2376,0.227 c -0.6233,0.5955 -1.268,0.9465 -2.0483,1.115 -0.36294,0.079 -1.38541,0.1119 -1.89765,0.062 z m 2.52032,-5.747 c -0.0291,-0.4187 -0.0956,-0.6674 -0.27882,-1.0441 -0.138,-0.2838 -0.19125,-0.3564 -0.40477,-0.5531 -0.43503,-0.4009 -0.82276,-0.5387 -1.44978,-0.5152 -0.57835,0.022 -0.87057,0.1392 -1.28889,0.518 -0.41544,0.3763 -0.69425,1.0669 -0.69425,1.7195 v 0.173 h 2.06862 2.06863 z m 7.3155,5.7461 c -1.91109,-0.2976 -3.1079,-1.6581 -3.36837,-3.829 -0.0458,-0.3818 -0.0465,-1.3321 -0.002,-1.7221 0.24219,-2.0868 1.31799,-3.3895 3.12705,-3.7869 0.42098,-0.092 1.61004,-0.084 2.01541,0.014 0.69137,0.1665 1.33344,0.5256 1.81353,1.0143 l 0.16891,0.172 -0.62578,0.6251 -0.62573,0.6251 -0.23649,-0.2164 c -0.3121,-0.2856 -0.52625,-0.425 -0.80947,-0.5266 -0.20973,-0.074 -0.28173,-0.084 -0.71684,-0.086 -0.45349,0 -0.50076,0 -0.7561,0.091 -0.6691,0.2295 -1.1249,0.7057 -1.35089,1.4111 -0.13264,0.414 -0.16711,0.7254 -0.16757,1.5138 0,0.7476 0.0504,1.1868 0.1835,1.59 0.21996,0.6652 0.73767,1.1936 1.38162,1.4101 0.19688,0.066 0.28545,0.076 0.69328,0.074 0.43277,0 0.48557,-0.01 0.70946,-0.093 0.30291,-0.1141 0.51471,-0.2535 0.82281,-0.5411 l 0.2417,-0.2259 0.63019,0.6055 0.63011,0.6055 -0.17084,0.1745 c -0.35647,0.3642 -0.92486,0.7379 -1.38006,0.9072 -0.4356,0.162 -0.6962,0.2028 -1.3705,0.2143 -0.3547,0.01 -0.7317,0 -0.83775,-0.019 z m 33.69687,0.015 c -0.0532,-0.01 -0.22009,-0.029 -0.3708,-0.049 -0.5217,-0.068 -1.16169,-0.2554 -1.56399,-0.4575 -0.25771,-0.1294 -0.62882,-0.3804 -0.88931,-0.6014 l -0.21214,-0.1801 0.6096,-0.6046 c 0.33529,-0.3325 0.62048,-0.6046 0.6338,-0.6046 0.0134,0 0.0594,0.036 0.10238,0.084 0.20125,0.2147 0.71483,0.5157 1.11157,0.6513 0.43455,0.1488 0.70378,0.1837 1.4173,0.1839 0.60169,0 0.70419,-0.01 0.919,-0.07 0.36759,-0.1071 0.58,-0.2126 0.76798,-0.3816 0.24012,-0.2159 0.3358,-0.4171 0.35382,-0.7439 0.02,-0.3644 -0.0475,-0.5851 -0.2371,-0.7748 -0.27582,-0.2758 -0.5234,-0.341 -1.69611,-0.4466 -1.00837,-0.091 -1.26269,-0.125 -1.607,-0.2165 -0.77483,-0.2061 -1.3375,-0.6106 -1.61528,-1.1607 -0.335,-0.6638 -0.34461,-1.7594 -0.0211,-2.3966 0.40192,-0.7916 1.11634,-1.3055 2.16478,-1.5573 0.34021,-0.082 0.39908,-0.086 1.16448,-0.084 0.86807,0 1.1744,0.035 1.75745,0.1918 0.52276,0.1402 1.11562,0.4296 1.41886,0.6923 l 0.14509,0.1258 -0.58654,0.588 -0.58658,0.5879 -0.22776,-0.1515 c -0.25731,-0.171 -0.6995,-0.3453 -1.0821,-0.426 -0.38035,-0.08 -1.25469,-0.1 -1.56092,-0.035 -0.76835,0.1631 -1.15024,0.638 -1.06027,1.3183 0.0584,0.4405 0.32524,0.6863 0.88798,0.8167 0.11086,0.026 0.56069,0.075 0.99965,0.1088 0.43892,0.035 0.94316,0.085 1.12051,0.112 1.3265,0.2049 2.09296,0.7774 2.37636,1.7754 0.0631,0.2221 0.0735,0.3345 0.0738,0.8062 0,0.6088 -0.0305,0.7707 -0.23002,1.1977 -0.37288,0.7979 -1.21876,1.3707 -2.38138,1.6126 -0.33987,0.071 -0.48506,0.082 -1.19312,0.091 -0.44336,0.01 -0.84969,0.01 -0.90288,0 z m 9.96481,-0.015 c -1.91105,-0.2976 -3.1079,-1.6581 -3.36836,-3.829 -0.0458,-0.3818 -0.0465,-1.3321 -0.002,-1.7221 0.24214,-2.0868 1.31794,-3.3895 3.12704,-3.7869 0.42207,-0.093 1.61056,-0.084 2.01541,0.015 0.68476,0.1657 1.179,0.4362 1.68534,0.9223 l 0.26892,0.2582 -0.61981,0.6204 -0.6198,0.6205 -0.2451,-0.2213 c -0.29186,-0.2635 -0.54586,-0.4222 -0.83635,-0.5224 -0.18426,-0.064 -0.278,-0.074 -0.68125,-0.074 -0.43146,0 -0.48859,0.01 -0.73993,0.093 -0.66886,0.2291 -1.12491,0.7053 -1.35091,1.411 -0.13265,0.414 -0.16706,0.7253 -0.16754,1.5136 0,0.7476 0.0504,1.187 0.1835,1.59 0.21998,0.6654 0.73798,1.1941 1.38159,1.4101 0.19399,0.065 0.28929,0.075 0.6772,0.075 0.41684,0 0.47059,-0.01 0.70148,-0.092 0.31189,-0.1148 0.55321,-0.2705 0.85685,-0.5532 l 0.23626,-0.2199 0.61163,0.6099 0.61158,0.61 -0.26751,0.2597 c -0.3831,0.3718 -0.8207,0.6568 -1.25821,0.8196 -0.42786,0.1591 -0.69168,0.2 -1.36308,0.2117 -0.35474,0.01 -0.73171,0 -0.83777,-0.019 z m 19.31498,0 c -0.1596,-0.014 -0.42805,-0.062 -0.59655,-0.1063 -1.64739,-0.4303 -2.58439,-1.659 -2.80435,-3.6772 -0.0445,-0.4098 -0.0451,-1.371 -0.002,-1.7629 0.13871,-1.2277 0.53892,-2.1576 1.23018,-2.8581 0.50604,-0.5128 1.12946,-0.8289 1.8975,-0.9623 0.38667,-0.066 1.30638,-0.048 1.67682,0.035 0.69931,0.1562 1.32532,0.4925 1.78104,0.9568 0.26964,0.2746 0.60293,0.7935 0.77897,1.2127 0.31389,0.7475 0.3768,1.0913 0.398,2.1755 l 0.0165,0.8303 h -2.99519 -2.99521 l 0.0216,0.3145 c 0.0805,1.1627 0.60458,1.8955 1.55828,2.1796 0.19406,0.058 0.31296,0.068 0.82332,0.068 0.57058,0 0.60994,0 0.90293,-0.094 0.34882,-0.108 0.74586,-0.3285 1.03515,-0.5746 0.10886,-0.093 0.21673,-0.182 0.23971,-0.1987 0.0305,-0.022 0.19652,0.1176 0.61261,0.5155 l 0.57089,0.5458 -0.28003,0.2672 c -0.86787,0.8278 -1.78366,1.1737 -3.08126,1.1637 -0.27487,0 -0.6304,-0.016 -0.79002,-0.03 z m 2.53136,-5.6199 c 0,-0.8803 -0.50296,-1.7464 -1.19953,-2.0656 -0.30277,-0.1388 -0.5044,-0.1796 -0.88538,-0.1796 -0.53375,0 -0.93605,0.1482 -1.31334,0.4842 -0.45466,0.4049 -0.68288,0.9081 -0.72001,1.5876 l -0.019,0.3465 h 2.0686 2.0686 z m 24.05582,5.6043 c -0.41146,-0.075 -0.7753,-0.2038 -1.14378,-0.4063 -0.339,-0.1861 -0.78091,-0.5189 -0.95197,-0.7167 -0.64875,-0.7505 -0.94084,-1.6257 -0.99366,-2.9773 -0.1043,-2.6709 0.43535,-4.0115 1.94891,-4.8417 0.5926,-0.3252 1.13591,-0.4552 1.90213,-0.4554 0.75947,0 1.29047,0.1274 1.90116,0.4566 0.90902,0.4899 1.49309,1.248 1.75919,2.2833 0.14892,0.5796 0.17325,0.8633 0.17237,2.0163 0,0.9828 -0.008,1.1368 -0.0709,1.4862 -0.12134,0.6736 -0.3289,1.2265 -0.62379,1.6611 -0.5157,0.7601 -1.42481,1.3254 -2.4069,1.4965 -0.34212,0.06 -1.15671,0.058 -1.49271,0 z m 1.26944,-1.6572 c 0.32112,-0.082 0.63566,-0.259 0.86337,-0.4852 0.44807,-0.4454 0.60817,-1.1116 0.60817,-2.531 0,-1.4454 -0.15975,-2.0906 -0.63269,-2.5546 -0.35688,-0.3502 -0.74375,-0.4912 -1.35056,-0.492 -0.38053,0 -0.64975,0.055 -0.91975,0.193 -0.76398,0.3878 -1.06473,1.1941 -1.06473,2.8536 0,1.7249 0.31664,2.512 1.16698,2.901 0.41133,0.1884 0.88347,0.2292 1.32921,0.1152 z m 8.93657,1.6878 c -1.35672,-0.2014 -2.3672,-0.9064 -2.9515,-2.0592 -0.38181,-0.7532 -0.54828,-1.5562 -0.54828,-2.6448 0,-0.815 0.0913,-1.4559 0.29337,-2.059 0.46815,-1.3972 1.51263,-2.3198 2.94846,-2.6041 0.35229,-0.07 1.53673,-0.061 1.87985,0.014 0.7241,0.1585 1.24622,0.4352 1.77103,0.9387 l 0.27066,0.2596 -0.62791,0.6259 -0.6279,0.6258 -0.23647,-0.2164 c -0.31209,-0.2856 -0.52631,-0.4249 -0.8095,-0.5266 -0.20975,-0.075 -0.28175,-0.084 -0.71684,-0.087 -0.45347,0 -0.50075,0 -0.7561,0.091 -0.848,0.291 -1.32987,0.9566 -1.48515,2.0519 -0.0524,0.3691 -0.0421,1.442 0.0172,1.8361 0.16096,1.0645 0.674,1.7546 1.51437,2.037 0.19694,0.066 0.28547,0.076 0.69334,0.075 0.43273,0 0.48553,-0.01 0.70939,-0.092 0.30292,-0.1142 0.51471,-0.2534 0.82281,-0.5412 l 0.24171,-0.2258 0.63193,0.6071 0.63195,0.6072 -0.26948,0.2606 c -0.522,0.5047 -1.04431,0.792 -1.7365,0.9554 -0.21442,0.051 -0.41442,0.066 -0.919,0.075 -0.35471,0.01 -0.68842,0 -0.74161,0 z m 18.38049,0 c -0.0532,-0.01 -0.22008,-0.029 -0.37081,-0.048 -0.52172,-0.068 -1.16169,-0.2553 -1.56396,-0.4574 -0.25779,-0.1295 -0.62885,-0.3805 -0.88935,-0.6015 l -0.21215,-0.1801 0.60959,-0.6046 c 0.33528,-0.3324 0.61887,-0.6045 0.63015,-0.6045 0.0114,0 0.0791,0.056 0.15076,0.1253 0.5895,0.5679 1.49774,0.8401 2.67321,0.8012 0.71219,-0.024 1.15813,-0.1623 1.505,-0.4684 0.22203,-0.1959 0.32979,-0.4193 0.34715,-0.7199 0.0272,-0.4731 -0.1175,-0.7694 -0.46767,-0.956 -0.27219,-0.1451 -0.51089,-0.1919 -1.35264,-0.2654 -1.34903,-0.1178 -1.80743,-0.2044 -2.3204,-0.4382 -0.92988,-0.4238 -1.38703,-1.2928 -1.2975,-2.4664 0.0917,-1.2035 0.975,-2.1081 2.3775,-2.4356 0.427,-0.1 1.1669,-0.1323 1.84185,-0.081 0.76277,0.058 1.3259,0.2021 1.91859,0.4925 0.30577,0.1499 0.75777,0.4499 0.75777,0.5031 0,0.014 -0.25936,0.2839 -0.57636,0.6006 l -0.57645,0.5757 -0.27003,-0.1638 c -0.34993,-0.2122 -0.71333,-0.3429 -1.17806,-0.4236 -0.45291,-0.079 -1.11437,-0.086 -1.44316,-0.016 -0.75111,0.1591 -1.13311,0.6402 -1.04393,1.3146 0.0305,0.2308 0.116,0.4025 0.26575,0.534 0.274,0.2406 0.56959,0.3124 1.61378,0.3918 0.93769,0.071 1.17384,0.103 1.61015,0.2148 0.80272,0.2058 1.37179,0.6104 1.6721,1.1887 0.21094,0.4061 0.26369,0.6636 0.26431,1.2898 0,0.7221 -0.079,1.0069 -0.42562,1.5202 -0.32813,0.4859 -0.84184,0.8614 -1.51234,1.1053 -0.58779,0.2138 -0.93639,0.266 -1.85045,0.2773 -0.43453,0.01 -0.83355,0 -0.88678,0 z m 10.02869,0 c -1.35677,-0.2014 -2.36718,-0.9064 -2.9516,-2.0592 -0.38177,-0.7532 -0.54822,-1.5562 -0.54822,-2.6448 0,-0.815 0.0913,-1.4559 0.29336,-2.059 0.46811,-1.3972 1.51264,-2.3198 2.9485,-2.6041 0.35221,-0.07 1.53668,-0.061 1.87978,0.014 0.72418,0.1585 1.24625,0.4352 1.77103,0.9387 l 0.27069,0.2596 -0.62791,0.6259 -0.62794,0.6258 -0.23647,-0.2164 c -0.31209,-0.2856 -0.52622,-0.4249 -0.80943,-0.5266 -0.20975,-0.075 -0.28175,-0.084 -0.71689,-0.087 -0.44936,0 -0.502,0 -0.74168,0.087 -0.64604,0.2242 -1.13582,0.7309 -1.34704,1.3938 -0.15409,0.4834 -0.18593,0.7445 -0.18614,1.528 0,0.9715 0.11305,1.5559 0.39828,2.0513 0.25212,0.438 0.68622,0.7932 1.16712,0.9555 0.19721,0.066 0.28484,0.076 0.69335,0.075 0.43275,0 0.48559,-0.01 0.70943,-0.092 0.30297,-0.1144 0.51468,-0.2536 0.82282,-0.5414 l 0.24175,-0.2256 0.6319,0.607 0.63194,0.6072 -0.26944,0.2605 c -0.52206,0.5047 -1.04437,0.7922 -1.73654,0.9555 -0.21443,0.051 -0.41443,0.066 -0.91902,0.075 -0.35473,0.01 -0.68845,0 -0.74163,0 z m 18.79963,-0.012 c -0.81572,-0.097 -1.57863,-0.541 -2.05022,-1.1919 -0.26469,-0.3655 -0.47428,-0.9289 -0.5481,-1.4736 -0.0269,-0.1993 -0.0428,-1.2506 -0.0525,-3.4859 l -0.0135,-3.2004 h 0.93535 0.93532 l 0.0119,3.0393 c 0.0119,2.9699 0.0135,3.0451 0.0802,3.2971 0.11114,0.421 0.23659,0.6625 0.46505,0.8953 0.34699,0.3536 0.74764,0.5077 1.31669,0.5067 0.6038,0 1.00094,-0.152 1.3612,-0.518 0.2304,-0.234 0.348,-0.4327 0.45665,-0.771 0.0662,-0.206 0.0675,-0.2671 0.077,-3.3296 l 0.01,-3.1198 h 0.93419 0.93426 v 4.6434 4.6436 h -0.91905 -0.919 v -0.4533 -0.4533 l -0.25809,0.2195 c -0.43735,0.372 -0.97141,0.6294 -1.52685,0.7355 -0.262,0.05 -0.87855,0.058 -1.23011,0.016 z m 16.34899,0 c -0.15961,-0.014 -0.42811,-0.062 -0.59659,-0.1064 -1.64737,-0.4301 -2.58437,-1.659 -2.80435,-3.677 -0.0446,-0.41 -0.0451,-1.371 0,-1.763 0.13463,-1.192 0.52053,-2.1126 1.17023,-2.7916 0.47228,-0.4935 1.01494,-0.8008 1.73171,-0.9804 0.39119,-0.098 1.24679,-0.1226 1.7095,-0.049 1.01717,0.161 1.80726,0.6548 2.3541,1.471 0.3156,0.4711 0.51897,0.9519 0.66797,1.5792 0.10788,0.4547 0.11147,0.4912 0.12841,1.3141 l 0.0172,0.8465 h -2.99545 -2.99543 l 0.0219,0.3143 c 0.0806,1.1628 0.60456,1.8957 1.55821,2.1797 0.19409,0.058 0.313,0.068 0.8234,0.068 0.57054,0 0.60989,0 0.90289,-0.094 0.34881,-0.108 0.74587,-0.3284 1.03515,-0.5746 0.10885,-0.093 0.21641,-0.1818 0.23896,-0.1983 0.0295,-0.021 0.20648,0.1235 0.62676,0.5129 l 0.58566,0.5429 -0.13882,0.1431 c -0.52718,0.5439 -1.26031,0.9753 -1.96075,1.1541 -0.53665,0.1372 -1.31606,0.1779 -2.07987,0.1086 z m 2.52029,-5.745 c -0.0291,-0.4185 -0.0955,-0.6674 -0.27881,-1.0441 -0.138,-0.2835 -0.19128,-0.3563 -0.40481,-0.5531 -0.43488,-0.4007 -0.82258,-0.5386 -1.44976,-0.5152 -0.43912,0.016 -0.73493,0.1006 -1.01291,0.2886 -0.605,0.4094 -0.91783,0.9874 -0.96096,1.7754 l -0.0186,0.3468 h 2.07348 2.07347 z m 21.40653,5.7496 c -0.69141,-0.093 -1.38132,-0.4417 -1.82941,-0.9257 -0.40847,-0.4413 -0.67431,-1.0433 -0.76887,-1.7413 -0.0269,-0.199 -0.0428,-1.2504 -0.0525,-3.4857 l -0.0135,-3.2003 h 0.93548 0.93543 l 0.0125,3.023 c 0.0135,3.3903 0.005,3.2666 0.25097,3.7709 0.30278,0.6221 0.862,0.946 1.63143,0.9446 0.913,0 1.53242,-0.4436 1.82951,-1.3055 0.0654,-0.1895 0.0668,-0.2565 0.0765,-3.3132 l 0.01,-3.1198 h 0.91808 0.91814 v 4.6433 4.6437 h -0.90291 -0.9029 v -0.454 -0.454 l -0.24992,0.2143 c -0.3694,0.3166 -0.82227,0.5517 -1.34627,0.6996 -0.25326,0.071 -1.10354,0.1065 -1.45113,0.06 z m 23.70181,0 c -1.9111,-0.2978 -3.1079,-1.6582 -3.36837,-3.829 -0.0458,-0.3818 -0.0464,-1.3321 0,-1.7221 0.23947,-2.0633 1.29006,-3.3569 3.06256,-3.7715 0.4092,-0.096 1.36261,-0.1189 1.81037,-0.044 0.80603,0.1345 1.38088,0.4176 1.94311,0.9568 l 0.28096,0.2696 -0.63024,0.6281 -0.63039,0.6282 -0.20183,-0.1979 c -0.28573,-0.2801 -0.53798,-0.4447 -0.84169,-0.5489 -0.24168,-0.084 -0.30108,-0.09 -0.73064,-0.089 -0.42405,0 -0.49155,0.01 -0.72554,0.09 -0.64382,0.2209 -1.13564,0.7294 -1.34705,1.3928 -0.0454,0.1419 -0.0905,0.2958 -0.10069,0.3421 -0.10008,0.4568 -0.11831,1.6007 -0.0345,2.156 0.15998,1.0578 0.63845,1.7095 1.48213,2.0186 0.24385,0.089 0.28447,0.094 0.74166,0.093 0.46361,0 0.49406,-0.01 0.73361,-0.102 0.2902,-0.1162 0.5798,-0.3154 0.82926,-0.5704 0.0969,-0.099 0.19135,-0.1802 0.20994,-0.1802 0.0188,0 0.30631,0.273 0.63963,0.6066 l 0.606,0.6066 -0.27538,0.2644 c -0.49025,0.4707 -1.00525,0.7598 -1.66044,0.9318 -0.27043,0.071 -0.38871,0.082 -0.95362,0.091 -0.35472,0.01 -0.73169,0 -0.83779,-0.019 z m -364.2082,-6.577 v -6.5138 h 4.1598 4.15979 v 0.8868 0.8869 h -3.17629 -3.17627 v 1.9024 1.9026 h 2.7087 2.7087 v 0.8867 0.8868 h -2.7087 -2.7087 v 1.9509 1.9509 h 3.17627 3.17629 v 0.8868 0.8869 h -4.15979 -4.1598 z m 10.80255,1.8703 v -4.6434 h 0.93516 0.93514 v 4.6434 4.6436 h -0.93514 -0.93516 z m 34.89068,0 v -4.6434 h 0.91901 0.91902 v 0.4675 c 0,0.2572 0.008,0.4676 0.0184,0.4676 0.0101,0 0.13345,-0.098 0.2742,-0.2177 0.45535,-0.3873 1.03971,-0.6581 1.62119,-0.7513 0.40736,-0.065 1.15006,-0.02 1.55281,0.094 1.24651,0.354 2.02471,1.289 2.17691,2.616 0.0184,0.16 0.0315,1.5956 0.0316,3.4425 l 6.4e-4,3.1683 h -0.93516 -0.93513 v -3.0004 c 0,-3.3219 0.002,-3.2809 -0.20699,-3.7231 -0.22837,-0.4825 -0.57479,-0.7629 -1.11626,-0.9033 -0.2487,-0.064 -0.81914,-0.064 -1.07446,0 -0.50278,0.13 -0.89789,0.447 -1.1165,0.8962 -0.244,0.5014 -0.23615,0.3838 -0.24996,3.7367 l -0.0124,2.9909 h -0.93333 -0.93332 z m 38.40552,0 v -4.6434 h 0.93514 0.93515 v 4.6434 4.6436 h -0.93515 -0.93514 z m 22.86274,-1.8703 v -6.5138 h 0.93514 0.93515 v 2.3378 c 0,1.286 0.008,2.338 0.0188,2.338 0.0104,0 0.13744,-0.1051 0.28242,-0.2338 0.30838,-0.2734 0.8514,-0.5647 1.26272,-0.677 0.22571,-0.062 0.33661,-0.07 0.88677,-0.069 0.59981,0 0.64441,0.01 0.9674,0.099 1.26663,0.3632 2.04005,1.2879 2.19305,2.6218 0.0184,0.1598 0.0315,1.5954 0.0316,3.4423 v 3.1682 h -0.93515 -0.93515 v -3.0003 c 0,-3.3219 0.002,-3.2809 -0.20697,-3.7231 -0.22837,-0.4826 -0.57482,-0.7629 -1.11624,-0.9031 -0.2487,-0.065 -0.81918,-0.064 -1.0745,0 -0.50276,0.1298 -0.89789,0.4469 -1.1165,0.8961 -0.244,0.5013 -0.23613,0.3839 -0.24994,3.7365 l -0.0122,2.9909 h -0.93334 -0.93332 z m 27.31273,0.8869 v -5.627 h -1.78967 -1.78968 v -0.8869 -0.8868 h 4.579 4.579 v 0.8868 0.8869 h -1.80581 -1.8058 v 5.627 5.627 h -0.98352 -0.98352 z m 24.89425,-0.8869 v -6.5138 h 0.93516 0.93516 v 2.3378 c 0,1.286 0.009,2.338 0.0188,2.338 0.0104,0 0.13743,-0.1051 0.28241,-0.2338 0.3084,-0.2734 0.85142,-0.5647 1.26272,-0.677 0.22572,-0.062 0.33661,-0.07 0.88678,-0.069 0.59983,0 0.64443,0.01 0.9674,0.099 1.26663,0.3632 2.04008,1.2879 2.19305,2.6218 0.0185,0.1598 0.0315,1.5954 0.0316,3.4423 v 3.1682 h -0.93513 -0.93514 v -3.0003 c 0,-3.3219 0.002,-3.2809 -0.207,-3.7231 -0.22838,-0.4826 -0.57479,-0.7629 -1.11624,-0.9031 -0.2487,-0.065 -0.81914,-0.064 -1.07449,0 -0.50275,0.1298 -0.89789,0.4469 -1.11649,0.8961 -0.24401,0.5013 -0.23616,0.3839 -0.24995,3.7365 l -0.0125,2.9909 h -0.93334 -0.93334 z m 10.41563,1.8703 v -4.6434 h 0.90288 0.90292 v 0.4675 c 0,0.2572 0.009,0.4676 0.0189,0.4676 0.0104,0 0.13009,-0.095 0.26604,-0.2118 0.25481,-0.2182 0.69391,-0.4762 1.00488,-0.5902 0.44474,-0.163 0.56808,-0.1811 1.20924,-0.1794 0.59003,0 0.62619,0.01 0.9779,0.1054 1.15442,0.3279 1.83894,1.048 2.12138,2.232 0.0525,0.2205 0.0582,0.5173 0.0684,3.618 l 0.0111,3.3779 h -0.92031 -0.92027 v -3.007 c 0,-2.8539 -0.004,-3.0201 -0.0622,-3.265 -0.0978,-0.4075 -0.22646,-0.6586 -0.45891,-0.8954 -0.34904,-0.3557 -0.74592,-0.5075 -1.32802,-0.5075 -0.58792,0 -1.01232,0.1552 -1.35724,0.496 -0.3526,0.3486 -0.50653,0.7135 -0.56623,1.3422 -0.0185,0.1944 -0.0321,1.5087 -0.0321,3.0877 l -5e-5,2.749 h -0.91904 -0.91901 z m 10.38335,0 v -4.6434 h 0.93513 0.93517 v 4.6434 4.6436 h -0.93517 -0.93513 z m 22.86272,-1.8703 v -6.5138 h 0.93518 0.93513 v 2.3378 c 0,1.286 0.009,2.338 0.019,2.338 0.0105,0 0.13742,-0.1051 0.28241,-0.2338 0.30838,-0.2734 0.85138,-0.5647 1.26271,-0.677 0.22574,-0.062 0.33659,-0.07 0.88679,-0.069 0.5998,0 0.64441,0.01 0.96735,0.099 1.26667,0.3632 2.04012,1.2879 2.19309,2.6218 0.0186,0.1598 0.0315,1.5954 0.0316,3.4423 v 3.1682 h -0.93519 -0.93512 v -3.007 c 0,-2.8537 -0.004,-3.0201 -0.0621,-3.265 -0.0978,-0.4074 -0.2265,-0.6584 -0.45895,-0.8953 -0.34905,-0.3558 -0.74586,-0.5073 -1.32801,-0.5073 -0.41458,0 -0.6555,0.055 -0.97084,0.2199 -0.30445,0.1595 -0.5356,0.4017 -0.69394,0.7273 -0.244,0.5013 -0.23616,0.3839 -0.24996,3.7365 l -0.0125,2.9909 h -0.93334 -0.9333 z m 24.89428,0 v -6.5138 h 0.98354 0.9835 v 2.7893 2.7894 h 2.64419 2.64422 v -2.7894 -2.7893 h 0.9835 0.98355 v 6.5138 6.5139 h -0.98355 -0.9835 v -2.8379 -2.8376 h -2.64422 -2.64419 v 2.8376 2.8379 h -0.9835 -0.98354 z m 31.11782,0 v -6.5138 h 0.93518 0.93513 v 2.3378 c 0,1.286 0.008,2.338 0.0186,2.338 0.0105,0 0.13742,-0.1051 0.28242,-0.2338 0.30838,-0.2734 0.8514,-0.5647 1.26275,-0.677 0.22569,-0.062 0.3366,-0.07 0.88675,-0.069 0.59982,0 0.6444,0.01 0.9674,0.099 1.26663,0.3632 2.04004,1.2879 2.19304,2.6218 0.0184,0.1598 0.0316,1.5954 0.0316,3.4423 v 3.1682 h -0.93512 -0.93513 v -3.0003 c 0,-3.3597 0.005,-3.2851 -0.22645,-3.7596 -0.29946,-0.6153 -0.82455,-0.9147 -1.6038,-0.9147 -0.99606,0 -1.64839,0.5072 -1.86585,1.4511 -0.0502,0.2175 -0.057,0.5412 -0.0681,3.2326 l -0.0125,2.9909 h -0.93328 -0.93331 z m 28.40912,0 v -6.5138 h 0.93519 0.93509 v 2.3378 c 0,1.286 0.008,2.338 0.0181,2.338 0.01,0 0.13131,-0.098 0.26968,-0.2177 0.24791,-0.2144 0.7186,-0.495 1.0021,-0.5973 0.415,-0.1495 0.5469,-0.1681 1.177,-0.1666 0.575,0 0.63253,0.01 0.93512,0.094 1.27281,0.3641 2.06078,1.2852 2.20769,2.5806 0.0204,0.178 0.033,1.5218 0.0334,3.4748 v 3.1842 h -0.93513 -0.93515 v -3.0002 c 0,-3.3598 0.005,-3.2852 -0.22638,-3.7598 -0.2995,-0.6151 -0.8246,-0.9147 -1.60388,-0.9147 -0.99605,0 -1.64834,0.5073 -1.86586,1.4511 -0.0502,0.2176 -0.057,0.5414 -0.068,3.2326 l -0.0125,2.991 h -0.93335 -0.93334 z m 22.76597,6.4808 c -0.44334,-0.062 -0.91319,-0.2798 -1.22482,-0.5682 -0.33015,-0.3056 -0.54956,-0.7106 -0.68668,-1.2671 -0.0675,-0.2745 -0.0681,-0.3099 -0.0791,-5.7176 l -0.0109,-5.4417 h 0.91927 0.91923 l 0.009,5.3448 c 0.0105,6.0279 -0.0109,5.5449 0.26009,5.8264 0.19862,0.2064 0.35781,0.2441 1.02822,0.2441 h 0.54228 v 0.8061 0.8063 h -0.74969 c -0.4124,0 -0.82959,-0.015 -0.92713,-0.029 z m 17.21965,-0.8004 v -0.8334 l 3.00279,-4.7532 c 1.65156,-2.6144 3.00985,-4.7716 3.01846,-4.7938 0.0124,-0.032 -0.57528,-0.04 -2.87378,-0.04 h -2.88951 v -0.8867 -0.8868 h 4.04692 4.04693 v 0.8305 0.8302 l -3.01206,4.7887 -3.012,4.7885 3.01294,0.01 3.01291,0.01 v 0.8866 0.8868 h -4.17578 -4.17586 z m 21.12145,-3.8101 v -4.6434 h 0.9029 0.90288 v 0.5216 0.5217 l 0.21762,-0.2212 c 0.37472,-0.3805 0.82384,-0.631 1.42765,-0.796 0.23866,-0.065 0.34718,-0.075 0.85385,-0.075 0.50543,0 0.61993,0.01 0.88674,0.076 0.48348,0.1219 0.87735,0.3383 1.1762,0.6466 l 0.12819,0.1322 -0.69872,0.6986 -0.69872,0.6988 -0.155,-0.1446 c -0.20006,-0.1865 -0.46419,-0.3362 -0.70369,-0.3985 -0.253,-0.066 -0.75935,-0.065 -0.98526,0 -0.64452,0.1912 -1.10586,0.6916 -1.29333,1.4027 -0.0706,0.268 -0.0715,0.2974 -0.0829,3.2452 l -0.0116,2.9747 h -0.93347 -0.93346 z m 8.02932,0 v -4.6434 h 0.9352 0.9351 v 4.6434 4.6436 h -0.9351 -0.9352 z m 13.73699,-1.8703 v -6.5138 h 0.91903 0.919 v 2.3378 c 0,1.286 0.008,2.338 0.0181,2.338 0.01,0 0.13128,-0.098 0.26964,-0.2177 0.24795,-0.2144 0.7186,-0.495 1.00214,-0.5973 0.41519,-0.1496 0.54677,-0.1681 1.177,-0.1664 0.59,0 0.62619,0.01 0.9779,0.1054 0.58787,0.167 1.052,0.4359 1.41191,0.818 0.43163,0.4586 0.70459,1.0828 0.78678,1.7992 0.0185,0.1598 0.0316,1.5956 0.0316,3.4424 v 3.1683 h -0.93514 -0.93511 v -3.007 c 0,-2.8539 -0.004,-3.0201 -0.0622,-3.265 -0.0978,-0.4075 -0.2265,-0.6586 -0.45888,-0.8954 -0.34919,-0.3557 -0.74604,-0.5075 -1.32812,-0.5075 -0.58797,0 -1.01234,0.1552 -1.35728,0.496 -0.35259,0.3486 -0.5065,0.7135 -0.56622,1.3422 -0.0185,0.1944 -0.0324,1.5087 -0.0324,3.0877 v 2.749 h -0.919 -0.91907 z m -313.43551,-5.5141 v -0.9997 h 0.8384 0.83841 v 0.9997 0.9996 h -0.83841 -0.8384 z m 3.96631,0 v -0.9997 h 0.8384 0.83842 v 0.9997 0.9996 h -0.83842 -0.8384 z m 278.12567,0 v -0.9997 h 0.83841 0.8384 v 0.9997 0.9996 h -0.8384 -0.83841 z m 3.93405,0 v -0.9997 h 0.83841 0.8384 v 0.9997 0.9996 h -0.8384 -0.83841 z m -331.94498,-0.048 v -0.9835 h 0.98351 0.98352 v 0.9835 0.9835 h -0.98352 -0.98351 z m 73.29618,0 v -0.9835 h 0.98352 0.98353 v 0.9835 0.9835 h -0.98353 -0.98352 z m 95.83647,0 v -0.9835 h 0.99962 0.99965 v 0.9835 0.9835 h -0.99965 -0.99962 z m 176.42034,0 v -0.9835 h 0.99968 0.9996 v 0.9835 0.9835 h -0.9996 -0.99968 z m -356.34691,-19.2269 c 0.009,-0.049 1.93688,-9.6478 4.28446,-21.3309 l 4.26834,-21.242 h 40.76756 c 35.56885,0 40.76759,0.01 40.76759,0.045 0,0.025 -0.74731,3.7339 -1.66069,8.2406 -0.91338,4.5066 -1.66069,8.2076 -1.66069,8.2245 0,0.019 1.78967,0.031 4.78235,0.031 h 4.78238 l 1.69111,-8.2709 1.6911,-8.271 h 6.65082 c 5.29911,0 6.65092,0.01 6.65125,0.04 0,0.022 -1.91777,9.6212 -4.26218,21.331 l -4.26257,21.2907 h -6.66937 c -4.94142,0 -6.66938,-0.01 -6.66938,-0.036 0,-0.02 0.7328,-3.7113 1.62844,-8.2026 0.89565,-4.4914 1.62845,-8.1899 1.62845,-8.2187 0,-0.048 -0.3872,-0.052 -4.78053,-0.052 h -4.78054 l -1.64363,8.2546 -1.64365,8.2546 h -6.66787 c -4.30215,0 -6.66789,-0.011 -6.66789,-0.031 0,-0.016 1.44382,-7.1935 3.20852,-15.9473 1.76469,-8.7537 3.20852,-15.937 3.20852,-15.9628 0,-0.041 -0.71955,-0.046 -5.60282,-0.046 h -5.60282 l -3.20635,15.9942 -3.20634,15.994 h -6.65302 c -4.02433,0 -6.653,-0.012 -6.653,-0.03 0,-0.016 1.43659,-7.1932 3.1924,-15.9485 1.75581,-8.7553 3.1924,-15.9394 3.1924,-15.9647 0,-0.039 -2.09613,-0.046 -15.21227,-0.046 h -15.21226 l -0.57348,2.9099 c -0.31541,1.6006 -0.57298,2.921 -0.57238,2.9341 6.4e-4,0.014 4.3181,0.025 9.59443,0.025 7.65295,0 9.5934,0.01 9.5937,0.04 6.2e-4,0.022 -0.43042,2.1843 -0.95694,4.8047 l -0.95728,4.7645 h -9.61185 -9.61187 l -0.57346,2.91 c -0.31542,1.6003 -0.57298,2.9206 -0.57237,2.934 6.1e-4,0.014 4.31809,0.024 9.59441,0.024 5.27631,0 9.59401,0.011 9.59486,0.025 8.4e-4,0.015 -0.47434,2.4075 -1.05595,5.3205 l -1.0575,5.2965 H 270.36666 254.1025 Z"
       id="path1" />
  </g>
</svg>
